<?xml version="1.0" encoding="UTF-8"?>
<svg version="1.1" xmlns="http://www.w3.org/2000/svg" width="256" height="256">
<path d="M0 0 C0.76304443 0.67881226 0.76304443 0.67881226 1.54150391 1.37133789 C4.4144036 3.66727019 5.42540862 4.19403638 8.98681641 4.18774414 C11.98884555 4.39495491 13.21928169 4.53972331 15.86181641 6.12524414 C17.73333937 9.24444908 17.84304579 11.7136059 17.89306641 15.30883789 C18.53960328 18.50380761 20.29867225 20.11453961 22.36181641 22.62524414 C36.20372263 46.19307126 40.16620123 74.90333419 33.93164062 101.44848633 C31.96792549 108.94997909 29.82707902 117.1137518 26.0949707 123.94360352 C25.01866762 127.88037111 26.40330309 129.77129166 28.22900391 133.35961914 C28.54257843 133.99708069 28.85615295 134.63454224 29.17922974 135.2913208 C30.51674706 138.0088598 31.8952351 140.70498965 33.27050781 143.40356445 C40.53181719 157.75885587 40.53181719 157.75885587 39.36181641 165.62524414 C37.53864663 168.3262364 36.40949913 169.34198404 33.27319336 170.18994141 C29.34195421 170.77773171 25.43626573 170.93384722 21.46728516 171.09008789 C19.6879825 171.16873322 17.90868582 171.24751385 16.12939453 171.32641602 C13.35677858 171.44487061 10.58410321 171.56132041 7.8112793 171.67480469 C-13.9431892 172.02043563 -13.9431892 172.02043563 -34.70068359 177.56274414 C-35.86728516 178.06676758 -37.03388672 178.57079102 -38.23583984 179.09008789 C-40.58519607 180.15013037 -42.93274426 181.2141859 -45.27880859 182.28149414 C-51.01198163 184.57476336 -55.83930252 184.80099603 -61.59521484 182.38305664 C-63.54880411 181.3749143 -65.48263058 180.32694722 -67.38818359 179.23071289 C-75.60408247 175.17213784 -83.37367085 174.17720203 -92.45458984 174.14868164 C-93.5510936 174.13310211 -94.64759735 174.11752258 -95.77732849 174.10147095 C-99.25177338 174.0543178 -102.72602239 174.02632402 -106.20068359 174.00024414 C-109.67877454 173.96355898 -113.15675937 173.92276572 -116.63475037 173.87759399 C-118.78952282 173.85071492 -120.94437166 173.82921774 -123.09925842 173.8140564 C-129.01939921 173.75257148 -134.76534343 173.38364342 -140.63818359 172.62524414 C-140.63818359 171.63524414 -140.63818359 170.64524414 -140.63818359 169.62524414 C-141.87568359 169.70774414 -143.11318359 169.79024414 -144.38818359 169.87524414 C-147.43078817 169.85908872 -148.43886492 169.75301252 -151.07568359 168.06274414 C-153.15683047 164.81615502 -153.42062292 162.4765626 -153.63818359 158.62524414 C-152.75905285 155.98893637 -151.8697721 153.78843556 -150.63818359 151.33618164 C-150.32365234 150.66986725 -150.00912109 150.00355286 -149.68505859 149.31704712 C-148.68580636 147.20314661 -147.66450663 145.10111967 -146.63818359 143.00024414 C-145.61328187 140.89168224 -144.59403732 138.78122106 -143.59130859 136.66201782 C-142.96917286 135.34784771 -142.33426454 134.03962716 -141.68505859 132.73861694 C-139.05630373 127.19853474 -139.97043294 124.5085409 -141.94287109 118.94555664 C-142.19536621 118.27290771 -142.44786133 117.60025879 -142.70800781 116.90722656 C-150.63496905 95.67171943 -153.74138348 70.60243779 -146.63818359 48.62524414 C-146.33219238 47.62775146 -146.33219238 47.62775146 -146.02001953 46.61010742 C-139.47793946 25.46500001 -139.47793946 25.46500001 -132.63818359 18.62524414 C-132.53292032 17.21003796 -132.45389983 15.79283726 -132.38818359 14.37524414 C-132.01222234 11.00233463 -131.61717787 9.59163498 -129.76318359 6.62524414 C-126.41376979 4.48161931 -125.11607023 4.36239422 -121.26318359 4.18774414 C-116.14864866 3.92964012 -114.24009073 2.9455455 -110.66943359 -0.56616211 C-81.98120723 -26.1097175 -28.83326438 -24.19673796 0 0 Z M-84.63818359 -9.37475586 C-85.70810547 -9.00092773 -86.77802734 -8.62709961 -87.88037109 -8.24194336 C-99.87760731 -3.81280932 -99.87760731 -3.81280932 -108.63818359 4.62524414 C-73.65818359 4.62524414 -38.67818359 4.62524414 -2.63818359 4.62524414 C-15.06405844 -7.80063071 -34.17926694 -13.66379599 -51.48168945 -13.84277344 C-53.16790405 -13.82766724 -53.16790405 -13.82766724 -54.88818359 -13.81225586 C-56.06968994 -13.80540771 -57.25119629 -13.79855957 -58.46850586 -13.79150391 C-67.76732597 -13.62143849 -75.86341803 -12.48969584 -84.63818359 -9.37475586 Z M17.36181641 24.62524414 C17.26899187 35.96078284 17.1979881 47.29623058 17.15456772 58.63207245 C17.13372436 63.8962093 17.105466 69.16008544 17.06005859 74.42407227 C17.01648506 79.50747732 16.99265485 84.59063214 16.98230743 89.67420959 C16.97493672 91.61023394 16.96054343 93.54624513 16.93889618 95.48216248 C16.90970913 98.20137755 16.90586677 100.91956862 16.90771484 103.63891602 C16.89333374 104.4330188 16.87895264 105.22712158 16.86413574 106.04528809 C16.90672203 111.86510206 18.46788018 115.57843724 21.36181641 120.62524414 C24.71405774 117.59223639 25.68193904 114.24078772 26.92431641 110.00024414 C27.2365918 108.98897461 27.2365918 108.98897461 27.55517578 107.95727539 C30.04688869 99.72446847 31.7055111 91.72935651 32.11181641 83.12524414 C32.15274414 82.26157227 32.19367188 81.39790039 32.23583984 80.50805664 C32.90958435 61.55986051 29.724115 39.61788662 17.36181641 24.62524414 Z M-132.63818359 26.62524414 C-145.95007935 51.22981551 -149.83901302 80.01639757 -141.90722656 107.12329102 C-140.32181866 112.02486784 -138.53313608 116.83573639 -136.63818359 121.62524414 C-132.08989396 116.04325232 -131.34635619 111.24551136 -131.41113281 104.16308594 C-131.41069473 102.90378014 -131.41069473 102.90378014 -131.4102478 101.61903381 C-131.41163712 98.85407039 -131.42717957 96.08937904 -131.44287109 93.32446289 C-131.44660264 91.40346931 -131.44944894 89.48247383 -131.45144653 87.56147766 C-131.45907184 82.51279417 -131.47871091 77.46422629 -131.50085449 72.41558838 C-131.52133664 67.26088017 -131.53045332 62.10615322 -131.54052734 56.95141602 C-131.5619578 46.84264134 -131.59608048 36.73395237 -131.63818359 26.62524414 C-131.96818359 26.62524414 -132.29818359 26.62524414 -132.63818359 26.62524414 Z M-92.20068359 114.87524414 C-92.90894287 114.99657715 -93.61720215 115.11791016 -94.34692383 115.24291992 C-96.46213071 115.64229293 -98.54390065 116.12880875 -100.63818359 116.62524414 C-101.6403894 116.7771521 -101.6403894 116.7771521 -102.6628418 116.93212891 C-106.51389318 117.82351065 -108.24900896 119.10895453 -110.65258789 122.29760742 C-112.79905721 125.82811768 -114.77172375 129.41094785 -116.70068359 133.06274414 C-117.37354713 134.29770578 -118.04866322 135.53144291 -118.72607422 136.76391602 C-120.05859894 139.19203189 -121.37759874 141.62682806 -122.68945312 144.06616211 C-125.12460938 148.56078411 -127.74739848 152.93886131 -130.38598633 157.31689453 C-131.79712531 159.48055783 -131.79712531 159.48055783 -131.63818359 161.62524414 C-129.36689821 161.33711887 -127.09617953 161.04452577 -124.82568359 160.75024414 C-123.56111328 160.58782227 -122.29654297 160.42540039 -120.99365234 160.25805664 C-117.76667456 159.82311943 -114.59957523 159.21996939 -111.40771484 158.57836914 C-105.3031756 157.45330767 -99.33407676 157.25784646 -93.13818359 157.25024414 C-92.08759766 157.22575195 -91.03701172 157.20125977 -89.95458984 157.17602539 C-77.55680811 157.13005092 -66.84687843 161.47707976 -58.00878906 170.22900391 C-57.22648926 171.01976318 -56.44418945 171.81052246 -55.63818359 172.62524414 C-55.86495017 165.75391715 -56.15194487 158.8869842 -56.48046875 152.01977539 C-56.5851047 149.68474157 -56.67606235 147.34905226 -56.75292969 145.01293945 C-56.86600639 141.64926534 -57.02853957 138.29103748 -57.20068359 134.92993164 C-57.22501465 133.88908417 -57.2493457 132.84823669 -57.27441406 131.77584839 C-57.57244642 126.24933579 -57.57244642 126.24933579 -60.37426758 121.65533447 C-64.70294483 118.32133039 -69.35903155 116.01609766 -74.63818359 114.62524414 C-75.26724609 114.45895508 -75.89630859 114.29266602 -76.54443359 114.12133789 C-81.89085263 113.14458826 -86.9076262 113.96740495 -92.20068359 114.87524414 Z M-53.63818359 121.62524414 C-55.86858373 123.43609509 -55.86858373 123.43609509 -55.88623047 125.98535156 C-55.7901394 136.01485725 -55.00202453 145.94946255 -54.13818359 155.93774414 C-53.99315868 157.66100996 -53.84862412 159.38431712 -53.70458984 161.10766602 C-53.35476078 165.28068923 -52.99834112 169.45310018 -52.63818359 173.62524414 C-51.94438599 173.02123779 -51.94438599 173.02123779 -51.23657227 172.4050293 C-50.3119519 171.60524658 -50.3119519 171.60524658 -49.36865234 170.78930664 C-48.76174561 170.26288574 -48.15483887 169.73646484 -47.52954102 169.1940918 C-36.82956884 160.3186534 -24.015033 157.42564573 -10.32568359 157.43774414 C-9.55385742 157.43709961 -8.78203125 157.43645508 -7.98681641 157.43579102 C-0.76433539 157.50004277 6.31516792 158.26393515 13.47119141 159.18774414 C16.81712759 159.56399399 20.000839 159.70979703 23.36181641 159.62524414 C20.10364323 154.55340807 16.47121241 149.85372441 12.73681641 145.12524414 C6.71297859 137.4471836 0.9455606 129.6277531 -4.63818359 121.62524414 C-7.34849092 124.22941612 -9.64655248 126.85518789 -11.81005859 129.92602539 C-12.39271484 130.7387793 -12.97537109 131.5515332 -13.57568359 132.38891602 C-14.77323965 134.07297923 -15.96604613 135.76043117 -17.15380859 137.45141602 C-26.38674541 150.27831399 -26.38674541 150.27831399 -32.68798828 152.2746582 C-34.63818359 152.56274414 -34.63818359 152.56274414 -37.63818359 152.62524414 C-35.9167027 144.1971606 -32.21682894 139.02778195 -26.63818359 132.62524414 C-25.1914842 130.86191836 -23.7537274 129.09121198 -22.32568359 127.31274414 C-21.69017578 126.53286133 -21.05466797 125.75297852 -20.39990234 124.94946289 C-18.6169833 122.5972748 -17.10887646 120.18198712 -15.63818359 117.62524414 C-18.26278019 117.12304343 -20.88781729 116.62339057 -23.51318359 116.12524414 C-24.25955078 115.9821582 -25.00591797 115.83907227 -25.77490234 115.69165039 C-36.01698575 113.75395894 -44.99433051 115.69803059 -53.63818359 121.62524414 Z M-103.63818359 164.62524414 C-103.63818359 164.95524414 -103.63818359 165.28524414 -103.63818359 165.62524414 C-101.65818359 165.62524414 -99.67818359 165.62524414 -97.63818359 165.62524414 C-97.63818359 165.29524414 -97.63818359 164.96524414 -97.63818359 164.62524414 C-99.61818359 164.62524414 -101.59818359 164.62524414 -103.63818359 164.62524414 Z M-92.63818359 164.62524414 C-92.63818359 164.95524414 -92.63818359 165.28524414 -92.63818359 165.62524414 C-89.33818359 165.62524414 -86.03818359 165.62524414 -82.63818359 165.62524414 C-82.63818359 165.29524414 -82.63818359 164.96524414 -82.63818359 164.62524414 C-85.93818359 164.62524414 -89.23818359 164.62524414 -92.63818359 164.62524414 Z M-81.63818359 165.62524414 C-77.63818359 166.62524414 -77.63818359 166.62524414 -77.63818359 166.62524414 Z " fill="#382C42" transform="translate(184.63818359375,48.374755859375)"/>
<path d="M0 0 C0.33 0 0.66 0 1 0 C1.03867187 0.88751953 1.03867187 0.88751953 1.078125 1.79296875 C1.13484375 2.58316406 1.1915625 3.37335937 1.25 4.1875 C1.29640625 4.96480469 1.3428125 5.74210937 1.390625 6.54296875 C2.19045864 9.76793899 3.89591329 11.43622828 6 14 C19.83875354 37.57198759 23.80520567 66.2745951 17.56982422 92.82324219 C15.60610909 100.32473495 13.46526261 108.48850766 9.7331543 115.31835938 C8.65685121 119.25512696 10.04148669 121.14604752 11.8671875 124.734375 C12.18076202 125.37183655 12.49433655 126.0092981 12.81741333 126.66607666 C14.15493065 129.38361566 15.53341869 132.07974551 16.90869141 134.77832031 C24.17000079 149.13361173 24.17000079 149.13361173 23 157 C21.17683022 159.70099226 20.04768273 160.7167399 16.91137695 161.56469727 C12.9801378 162.15248757 9.07444932 162.30860308 5.10546875 162.46484375 C3.32616609 162.54348908 1.54686941 162.62226971 -0.23242188 162.70117188 C-3.00503783 162.81962647 -5.7777132 162.93607627 -8.55053711 163.04956055 C-30.30500561 163.39519149 -30.30500561 163.39519149 -51.0625 168.9375 C-52.22910156 169.44152344 -53.39570313 169.94554687 -54.59765625 170.46484375 C-56.94701248 171.52488623 -59.29456066 172.58894176 -61.640625 173.65625 C-67.37379804 175.94951922 -72.20111892 176.17575189 -77.95703125 173.7578125 C-79.91062052 172.74967016 -81.84444699 171.70170308 -83.75 170.60546875 C-91.96589888 166.5468937 -99.73548726 165.55195789 -108.81640625 165.5234375 C-109.91291 165.50785797 -111.00941376 165.49227844 -112.1391449 165.47622681 C-115.61358979 165.42907366 -119.0878388 165.40107988 -122.5625 165.375 C-126.04059094 165.33831484 -129.51857578 165.29752158 -132.99656677 165.25234985 C-135.15133923 165.22547078 -137.30618807 165.2039736 -139.46107483 165.18881226 C-145.38121561 165.12732734 -151.12715983 164.75839928 -157 164 C-157 163.01 -157 162.02 -157 161 C-158.2375 161.0825 -159.475 161.165 -160.75 161.25 C-163.79260457 161.23384458 -164.80068133 161.12776838 -167.4375 159.4375 C-169.51864687 156.19091088 -169.78243932 153.85131845 -170 150 C-169.12086926 147.36369223 -168.23158851 145.16319142 -167 142.7109375 C-166.68546875 142.04462311 -166.3709375 141.37830872 -166.046875 140.69180298 C-165.04762277 138.57790247 -164.02632303 136.47587553 -163 134.375 C-161.97509828 132.2664381 -160.95585372 130.15597692 -159.953125 128.03677368 C-159.33098927 126.72260357 -158.69608095 125.41438302 -158.046875 124.1133728 C-155.41812014 118.5732906 -156.33224934 115.88329676 -158.3046875 110.3203125 C-158.55718262 109.64766357 -158.80967773 108.97501465 -159.06982422 108.28198242 C-166.99678546 87.04647529 -170.10319989 61.97719364 -163 40 C-162.69400879 39.00250732 -162.69400879 39.00250732 -162.38183594 37.98486328 C-155.83975587 16.83975587 -155.83975587 16.83975587 -149 10 C-148.76807135 8.48530552 -148.58784762 6.96245438 -148.4375 5.4375 C-148.35371094 4.61121094 -148.26992187 3.78492188 -148.18359375 2.93359375 C-148.09271484 1.97646484 -148.09271484 1.97646484 -148 1 C-147.67 1 -147.34 1 -147 1 C-147 34.66 -147 68.32 -147 103 C-140.4 103 -133.8 103 -127 103 C-123.19807075 103.11016688 -119.4196884 103.23442961 -115.625 103.4375 C-114.76390625 103.47681641 -113.9028125 103.51613281 -113.015625 103.55664062 C-108.60646088 103.77709883 -104.34433697 104.15801938 -100 105 C-100 105.33 -100 105.66 -100 106 C-101.14597656 106.19335938 -102.29195313 106.38671875 -103.47265625 106.5859375 C-105.00263883 106.84875659 -106.53258482 107.11178879 -108.0625 107.375 C-108.81466797 107.50132812 -109.56683594 107.62765625 -110.34179688 107.7578125 C-111.08623047 107.88671875 -111.83066406 108.015625 -112.59765625 108.1484375 C-113.27320557 108.26364746 -113.94875488 108.37885742 -114.64477539 108.49755859 C-115.81061157 108.74626709 -115.81061157 108.74626709 -117 109 C-118.1653125 109.2273584 -119.330625 109.4547168 -120.53125 109.68896484 C-124.85813216 111.32433627 -125.72088173 112.80962647 -127.90234375 116.828125 C-128.22860245 117.41358093 -128.55486115 117.99903687 -128.89100647 118.60223389 C-129.92797213 120.47394459 -130.93304277 122.36068107 -131.9375 124.25 C-132.60663287 125.47250105 -133.27784264 126.6938677 -133.95117188 127.9140625 C-135.29507922 130.35469096 -136.6275214 132.80107648 -137.95263672 135.25195312 C-141.19717167 141.22676808 -144.60454931 147.11010551 -148 153 C-147.13834229 152.82609741 -147.13834229 152.82609741 -146.25927734 152.64868164 C-143.63139191 152.11892154 -141.0031997 151.59069869 -138.375 151.0625 C-137.01955078 150.78889648 -137.01955078 150.78889648 -135.63671875 150.50976562 C-134.75371094 150.33251953 -133.87070313 150.15527344 -132.9609375 149.97265625 C-132.15446777 149.81031494 -131.34799805 149.64797363 -130.51708984 149.48071289 C-123.5382674 148.14789995 -116.90900238 147.75030091 -109.8125 147.6875 C-108.73935547 147.65849609 -107.66621094 147.62949219 -106.56054688 147.59960938 C-92.85711234 147.49183887 -83.64091032 153.01412623 -73 161 C-73.20146173 154.55541516 -73.47098942 148.11622911 -73.78735352 141.67626953 C-73.88693287 139.48681901 -73.97108395 137.29660883 -74.03930664 135.10595703 C-74.14029763 131.95016768 -74.2971516 128.80130081 -74.46484375 125.6484375 C-74.48401352 124.67321136 -74.50318329 123.69798523 -74.52293396 122.69320679 C-74.78689961 118.60141471 -74.97814493 116.00453336 -77.97854614 113.05499268 C-82.06495122 110.26573258 -86.18184717 108.2354238 -91 107 C-90.505 105.515 -90.505 105.515 -90 104 C-78.78 104 -67.56 104 -56 104 C-56 104.66 -56 105.32 -56 106 C-54.02 106 -52.04 106 -50 106 C-50 106.33 -50 106.66 -50 107 C-50.68964844 107.08636719 -51.37929687 107.17273438 -52.08984375 107.26171875 C-58.89316502 108.2789506 -65.94783717 109.94783717 -71 115 C-71.68306997 125.43566794 -70.45276704 135.93117596 -69.5 146.3125 C-69.35494619 147.93940662 -69.21041165 149.56635962 -69.06640625 151.19335938 C-68.71690554 155.12946521 -68.36043961 159.06488142 -68 163 C-67.35353516 162.45585449 -66.70707031 161.91170898 -66.04101562 161.35107422 C-59.31799125 155.81043497 -53.33494655 152.5638005 -45 150 C-43.80310547 149.63068359 -43.80310547 149.63068359 -42.58203125 149.25390625 C-29.8044927 146.06501969 -15.68090607 147.90429927 -2.79296875 149.5625 C0.19679574 149.9073544 2.99985666 150.09430706 6 150 C5.3915625 149.23300781 4.783125 148.46601563 4.15625 147.67578125 C-2.59018198 139.14244938 -9.20597169 130.51426727 -15.77929688 121.84692383 C-16.44251953 120.97318115 -17.10574219 120.09943848 -17.7890625 119.19921875 C-18.38412598 118.41377686 -18.97918945 117.62833496 -19.59228516 116.8190918 C-20.87317428 115.08467114 -20.87317428 115.08467114 -22 114 C-22.94359375 115.34191406 -22.94359375 115.34191406 -23.90625 116.7109375 C-42.00433083 142.33477694 -42.00433083 142.33477694 -49.8125 144.9375 C-52 145 -52 145 -54 144 C-54 135.79559652 -50.02235126 131.20853472 -45 125 C-44.19949219 124.00742188 -43.39898437 123.01484375 -42.57421875 121.9921875 C-41.05221766 120.12393739 -39.5218045 118.26248718 -37.98046875 116.41015625 C-36.25729799 114.31312202 -34.60781707 112.18602257 -33 110 C-38.02649303 108.42922093 -42.76119922 107.55145271 -48 107 C-35.17502437 97.38126827 -16.03121954 104 0 104 C0 69.68 0 35.36 0 0 Z M1 16 C0.90717546 27.3355387 0.83617169 38.67098644 0.79275131 50.00682831 C0.77190795 55.27096516 0.7436496 60.5348413 0.69824219 65.79882812 C0.65466865 70.88223318 0.63083844 75.965388 0.62049103 81.04896545 C0.61312031 82.9849898 0.59872702 84.92100099 0.57707977 86.85691833 C0.54789272 89.57613341 0.54405036 92.29432448 0.54589844 95.01367188 C0.53151733 95.80777466 0.51713623 96.60187744 0.50231934 97.42004395 C0.54490562 103.23985792 2.10606377 106.9531931 5 112 C8.35224134 108.96699225 9.32012263 105.61554358 10.5625 101.375 C10.87477539 100.36373047 10.87477539 100.36373047 11.19335938 99.33203125 C13.68507228 91.09922433 15.34369469 83.10411237 15.75 74.5 C15.79092773 73.63632813 15.83185547 72.77265625 15.87402344 71.8828125 C16.54776795 52.93461637 13.36229859 30.99264248 1 16 Z M-149 18 C-162.31189576 42.60457137 -166.20082942 71.39115343 -158.26904297 98.49804688 C-156.68363507 103.3996237 -154.89495249 108.21049225 -153 113 C-148.45171037 107.41800818 -147.7081726 102.62026722 -147.77294922 95.5378418 C-147.77251114 94.278536 -147.77251114 94.278536 -147.77206421 92.99378967 C-147.77345353 90.22882624 -147.78899598 87.4641349 -147.8046875 84.69921875 C-147.80841904 82.77822517 -147.81126535 80.85722969 -147.81326294 78.93623352 C-147.82088825 73.88755003 -147.84052731 68.83898215 -147.8626709 63.79034424 C-147.88315305 58.63563603 -147.89226973 53.48090908 -147.90234375 48.32617188 C-147.92377421 38.2173972 -147.95789689 28.10870823 -148 18 C-148.33 18 -148.66 18 -149 18 Z M-120 156 C-120 156.33 -120 156.66 -120 157 C-118.02 157 -116.04 157 -114 157 C-114 156.67 -114 156.34 -114 156 C-115.98 156 -117.96 156 -120 156 Z M-109 156 C-109 156.33 -109 156.66 -109 157 C-105.7 157 -102.4 157 -99 157 C-99 156.67 -99 156.34 -99 156 C-102.3 156 -105.6 156 -109 156 Z M-98 157 C-94 158 -94 158 -94 158 Z " fill="#635C69" transform="translate(201,57)"/>
<path d="M0 0 C0.33 0 0.66 0 1 0 C1 33.66 1 67.32 1 102 C7.6 102 14.2 102 21 102 C24.80192925 102.11016688 28.5803116 102.23442961 32.375 102.4375 C33.23609375 102.47681641 34.0971875 102.51613281 34.984375 102.55664062 C39.39353912 102.77709883 43.65566303 103.15801938 48 104 C48 104.33 48 104.66 48 105 C46.85402344 105.19335938 45.70804687 105.38671875 44.52734375 105.5859375 C42.99736117 105.84875659 41.46741518 106.11178879 39.9375 106.375 C39.18533203 106.50132812 38.43316406 106.62765625 37.65820312 106.7578125 C36.91376953 106.88671875 36.16933594 107.015625 35.40234375 107.1484375 C34.72679443 107.26364746 34.05124512 107.37885742 33.35522461 107.49755859 C32.18938843 107.74626709 32.18938843 107.74626709 31 108 C29.8346875 108.2266333 28.669375 108.4532666 27.46875 108.68676758 C23.1312925 110.32888356 22.27496816 111.82864671 20.09765625 115.86328125 C19.77139755 116.45110886 19.44513885 117.03893646 19.10899353 117.64457703 C18.07194967 119.5230151 17.06662781 121.41629817 16.0625 123.3125 C15.0596221 125.15763009 14.05035795 126.99916331 13.0406189 128.84054565 C12.37163789 130.06161316 11.7051416 131.28404533 11.04116821 132.50784302 C2.11499834 148.88500166 2.11499834 148.88500166 -1 152 C0.32 152.66 1.64 153.32 3 154 C1.02 154 -0.96 154 -3 154 C-3.33 155.65 -3.66 157.3 -4 159 C-3.34933563 158.99777939 -2.69867126 158.99555878 -2.02828979 158.99327087 C4.75261892 158.97112264 11.53351733 158.95605355 18.31445312 158.94506836 C20.84407977 158.94004411 23.37370351 158.93322362 25.90332031 158.92456055 C29.54232499 158.91241147 33.18129122 158.90675254 36.8203125 158.90234375 C37.94865509 158.89718246 39.07699768 158.89202118 40.23953247 158.88670349 C41.30017914 158.88662796 42.36082581 158.88655243 43.45361328 158.88647461 C44.84593674 158.88314369 44.84593674 158.88314369 46.26638794 158.87974548 C49.24173142 159.01063402 52.07420242 159.45648376 55 160 C54.67 160.99 54.34 161.98 54 163 C33.21 163 12.42 163 -9 163 C-9 162.01 -9 161.02 -9 160 C-10.2375 160.0825 -11.475 160.165 -12.75 160.25 C-15.79260457 160.23384458 -16.80068133 160.12776838 -19.4375 158.4375 C-21.51864687 155.19091088 -21.78243932 152.85131845 -22 149 C-21.12086926 146.36369223 -20.23158851 144.16319142 -19 141.7109375 C-18.68546875 141.04462311 -18.3709375 140.37830872 -18.046875 139.69180298 C-17.04762277 137.57790247 -16.02632303 135.47587553 -15 133.375 C-13.97509828 131.2664381 -12.95585372 129.15597692 -11.953125 127.03677368 C-11.33098927 125.72260357 -10.69608095 124.41438302 -10.046875 123.1133728 C-7.41812014 117.5732906 -8.33224934 114.88329676 -10.3046875 109.3203125 C-10.55718262 108.64766357 -10.80967773 107.97501465 -11.06982422 107.28198242 C-18.99678546 86.04647529 -22.10319989 60.97719364 -15 39 C-14.69400879 38.00250732 -14.69400879 38.00250732 -14.38183594 36.98486328 C-7.83975587 15.83975587 -7.83975587 15.83975587 -1 9 C-0.76807135 7.48530552 -0.58784762 5.96245438 -0.4375 4.4375 C-0.35371094 3.61121094 -0.26992188 2.78492188 -0.18359375 1.93359375 C-0.09271484 0.97646484 -0.09271484 0.97646484 0 0 Z M-1 17 C-14.31189576 41.60457137 -18.20082942 70.39115343 -10.26904297 97.49804688 C-8.68363507 102.3996237 -6.89495249 107.21049225 -5 112 C-0.45171037 106.41800818 0.2918274 101.62026722 0.22705078 94.5378418 C0.22748886 93.278536 0.22748886 93.278536 0.22793579 91.99378967 C0.22654647 89.22882624 0.21100402 86.4641349 0.1953125 83.69921875 C0.19158096 81.77822517 0.18873465 79.85722969 0.18673706 77.93623352 C0.17911175 72.88755003 0.15947269 67.83898215 0.1373291 62.79034424 C0.11684695 57.63563603 0.10773027 52.48090908 0.09765625 47.32617188 C0.07622579 37.2173972 0.04210311 27.10870823 0 17 C-0.33 17 -0.66 17 -1 17 Z " fill="#534E59" transform="translate(53,58)"/>
<path d="M0 0 C1.32091644 0.00033989 1.32091644 0.00033989 2.66851807 0.00068665 C4.08121979 0.02391243 4.08121979 0.02391243 5.52246094 0.04760742 C6.49342712 0.05185226 7.46439331 0.05609711 8.46478271 0.06047058 C11.56241725 0.07724764 14.65939843 0.11489845 17.75683594 0.15307617 C19.85838903 0.16812425 21.95995234 0.18181244 24.06152344 0.1940918 C29.21021223 0.22714807 34.35841335 0.2789241 39.50683594 0.34057617 C39.85875 1.10499023 40.21066406 1.8694043 40.57324219 2.65698242 C41.9161873 5.57078762 43.26118666 8.48363253 44.60784912 11.39572144 C45.20565443 12.68900457 45.80286626 13.98256219 46.3994751 15.27639771 C50.19426789 23.5013018 54.01532727 31.70428012 58.40917969 39.6315918 C59.89612937 42.44134736 60.53784236 44.04442512 60.20214844 47.25073242 C59.97269531 47.94038086 59.74324219 48.6300293 59.50683594 49.34057617 C56.38728909 49.82416539 53.61650755 49.94615366 50.50683594 49.34057617 C47.65207933 47.22871762 45.74903441 44.58762716 43.69433594 41.71557617 C43.14841797 41.00272461 42.6025 40.28987305 42.04003906 39.55541992 C39.64072535 36.39308383 37.39864814 33.19015303 35.30761719 29.81713867 C34.71335938 28.99987305 34.11910156 28.18260742 33.50683594 27.34057617 C32.51683594 27.34057617 31.52683594 27.34057617 30.50683594 27.34057617 C29.08056641 25.88769531 29.08056641 25.88769531 27.62402344 23.87573242 C27.09679687 23.15836914 26.56957031 22.44100586 26.02636719 21.7019043 C25.48367187 20.94329102 24.94097656 20.18467773 24.38183594 19.40307617 C23.29625554 17.91453443 22.21033577 16.4262401 21.12402344 14.93823242 C20.64562012 14.27315674 20.1672168 13.60808105 19.67431641 12.92285156 C18.59863261 11.38265272 18.59863261 11.38265272 17.50683594 10.34057617 C16.87777344 11.23518555 16.24871094 12.12979492 15.60058594 13.05151367 C-2.49749489 38.67535311 -2.49749489 38.67535311 -10.30566406 41.27807617 C-12.49316406 41.34057617 -12.49316406 41.34057617 -14.49316406 40.34057617 C-14.49316406 32.1361727 -10.51551532 27.54911089 -5.49316406 21.34057617 C-4.69265625 20.34799805 -3.89214844 19.35541992 -3.06738281 18.33276367 C-1.54538173 16.46451356 -0.01496856 14.60306335 1.52636719 12.75073242 C3.24953794 10.65369819 4.89901887 8.52659874 6.50683594 6.34057617 C1.48034291 4.7697971 -3.25436329 3.89202889 -8.49316406 3.34057617 C-5.58194772 0.83655493 -3.8384783 -0.03309033 0 0 Z " fill="#BBB9BA" transform="translate(161.4931640625,160.659423828125)"/>
<path d="M0 0 C0.85096756 0.00202423 1.70193512 0.00404846 2.57868958 0.00613403 C3.45088638 0.00517731 4.32308319 0.00422058 5.22171021 0.00323486 C7.07369559 0.00255266 8.92568335 0.00440972 10.77766418 0.00857544 C13.60006675 0.01389115 16.42230783 0.0086485 19.2447052 0.00222778 C21.04353367 0.00288919 22.84236205 0.00417163 24.64118958 0.00613403 C25.48203598 0.0041098 26.32288239 0.00208557 27.18920898 0 C31.5531818 0.01725642 35.64477473 0.26536695 39.94197083 1.13894653 C39.94197083 1.46894653 39.94197083 1.79894653 39.94197083 2.13894653 C28.13092407 4.6506628 17.00798907 5.51997869 4.94197083 5.13894653 C3.79223244 7.72060453 2.64706724 10.3041296 1.50447083 12.88894653 C1.17898254 13.61855591 0.85349426 14.34816528 0.5181427 15.09988403 C0.20554504 15.80886841 -0.10705261 16.51785278 -0.42912292 17.24832153 C-0.71714783 17.89768677 -1.00517273 18.547052 -1.30192566 19.21609497 C-2.07011074 21.16967125 -2.5944571 23.09365858 -3.05802917 25.13894653 C-1.40802917 25.13894653 0.24197083 25.13894653 1.94197083 25.13894653 C0.44295302 29.30978882 -1.62963215 32.83595011 -3.99552917 36.57644653 C-6.61478022 40.72318604 -8.85244919 44.72778657 -11.05802917 49.13894653 C-16.00802917 49.13894653 -20.95802917 49.13894653 -26.05802917 49.13894653 C-27.28622089 44.22617969 -25.92118745 41.8102335 -23.87052917 37.45144653 C-23.54391296 36.73464722 -23.21729675 36.0178479 -22.88078308 35.27932739 C-22.23436933 33.86142382 -21.58376647 32.44542125 -20.92863464 31.03152466 C-19.88918775 28.77190819 -18.91030984 26.48852659 -17.93302917 24.20144653 C-16.63044281 21.2622773 -15.1560196 18.49066618 -13.55802917 15.70144653 C-11.23763962 11.64076481 -9.50139459 7.48034322 -7.85490417 3.10769653 C-6.24609963 -0.86699705 -3.99318747 0.01610872 0 0 Z " fill="#BBB9BA" transform="translate(61.05802917480469,160.86105346679688)"/>
<path d="M0 0 C5.6028472 3.23697287 7.50575899 11.19250685 9.38818359 17.00488281 C9.86865234 19.07958984 9.86865234 19.07958984 9.86865234 23.07958984 C6.73583984 23.51318359 6.73583984 23.51318359 2.86865234 23.07958984 C0.4432442 21.10550688 -1.22843683 18.69721587 -3.00634766 16.14208984 C-3.73337891 15.15305664 -3.73337891 15.15305664 -4.47509766 14.14404297 C-5.70750421 12.46583572 -6.92094444 10.77373552 -8.13134766 9.07958984 C-8.62634766 8.58458984 -8.62634766 8.58458984 -9.13134766 8.07958984 C-9.76041016 8.97419922 -10.38947266 9.86880859 -11.03759766 10.79052734 C-29.13567848 36.41436679 -29.13567848 36.41436679 -36.94384766 39.01708984 C-39.13134766 39.07958984 -39.13134766 39.07958984 -41.13134766 38.07958984 C-41.13134766 26.74475045 -31.97617605 18.78245749 -25.10009766 10.52880859 C-23.53957744 8.58744714 -22.17791274 6.69696427 -20.88134766 4.57958984 C-15.97868083 -2.42421991 -7.55414761 -2.39925632 0 0 Z " fill="#4D3939" transform="translate(188.13134765625,162.92041015625)"/>
<path d="M0 0 C0.76219849 0.67796631 0.76219849 0.67796631 1.53979492 1.36962891 C4.41392861 3.66734574 5.48076122 4.21505133 9.05151367 4.25244141 C13.00780434 4.32077112 13.00780434 4.32077112 15.13354492 6.15087891 C15.53959961 6.63814453 15.9456543 7.12541016 16.36401367 7.62744141 C15.34887695 7.46445557 14.33374023 7.30146973 13.2878418 7.13354492 C6.74497865 6.32141696 0.16418256 6.50427368 -6.41723633 6.52978516 C-7.84069773 6.53165338 -9.26415979 6.53307537 -10.68762207 6.53407288 C-14.4095237 6.53786622 -18.13138546 6.54766884 -21.85327148 6.55877686 C-25.66104595 6.56905988 -29.46882694 6.57358518 -33.27661133 6.57861328 C-40.72975438 6.58929438 -48.18286474 6.60633195 -55.63598633 6.62744141 C-55.63598633 7.94744141 -55.63598633 9.26744141 -55.63598633 10.62744141 C-56.29598633 10.62744141 -56.95598633 10.62744141 -57.63598633 10.62744141 C-57.63598633 9.30744141 -57.63598633 7.98744141 -57.63598633 6.62744141 C-80.40598633 6.29744141 -103.17598633 5.96744141 -126.63598633 5.62744141 C-126.63598633 5.29744141 -126.63598633 4.96744141 -126.63598633 4.62744141 C-125.56670898 4.62357422 -125.56670898 4.62357422 -124.47583008 4.61962891 C-118.30699321 4.3705507 -115.04932601 3.74577902 -110.66723633 -0.56396484 C-81.97826301 -26.10818532 -28.83574718 -24.19259374 0 0 Z M-84.63598633 -9.37255859 C-85.7059082 -8.99873047 -86.77583008 -8.62490234 -87.87817383 -8.23974609 C-99.87541005 -3.81061205 -99.87541005 -3.81061205 -108.63598633 4.62744141 C-73.65598633 4.62744141 -38.67598633 4.62744141 -2.63598633 4.62744141 C-15.06186117 -7.79843344 -34.17706967 -13.66159873 -51.47949219 -13.84057617 C-53.16570679 -13.82546997 -53.16570679 -13.82546997 -54.88598633 -13.81005859 C-56.06749268 -13.80321045 -57.24899902 -13.7963623 -58.46630859 -13.78930664 C-67.7651287 -13.61924123 -75.86122076 -12.48749857 -84.63598633 -9.37255859 Z " fill="#F0CDA6" transform="translate(184.635986328125,48.37255859375)"/>
<path d="M0 0 C0.33 0 0.66 0 1 0 C1 33.99 1 67.98 1 103 C0.67 103 0.34 103 0 103 C-0.33 75.28 -0.66 47.56 -1 19 C-13.00159239 43.00318479 -17.54734768 71.25217155 -9.23681641 97.40136719 C-8.16137021 100.43007305 -7.05935749 103.43415407 -5.80615234 106.39428711 C-4.38262485 109.92248294 -3.93409054 111.72429422 -4.83203125 115.48046875 C-5.21746094 116.31191406 -5.60289063 117.14335937 -6 118 C-19.37850798 97.93223803 -21.30793857 68.30007365 -16.875 45.3125 C-16.30310548 43.19328339 -15.6750656 41.08864281 -15 39 C-14.79600586 38.33500488 -14.59201172 37.67000977 -14.38183594 36.98486328 C-7.83975587 15.83975587 -7.83975587 15.83975587 -1 9 C-0.76807135 7.48530552 -0.58784762 5.96245438 -0.4375 4.4375 C-0.35371094 3.61121094 -0.26992188 2.78492188 -0.18359375 1.93359375 C-0.09271484 0.97646484 -0.09271484 0.97646484 0 0 Z " fill="#D5BCA5" transform="translate(53,58)"/>
<path d="M0 0 C0 0.33 0 0.66 0 1 C-1.65 1.33 -3.3 1.66 -5 2 C-0.71 2.33 3.58 2.66 8 3 C8 3.66 8 4.32 8 5 C1.07 4.67 -5.86 4.34 -13 4 C-13 4.33 -13 4.66 -13 5 C-17.03081916 5.97348085 -20.73632542 6.07244945 -24.875 6 C-29.72195654 5.95926927 -34.24305478 6.0939152 -39 7 C-35.04 7 -31.08 7 -27 7 C-30.99158883 8.99579441 -32.96880374 9.29583096 -37.3125 9.5 C-42.19800443 9.80259318 -46.38850628 10.3913394 -51 12 C-51 12.66 -51 13.32 -51 14 C-52.86896555 14.84678051 -54.74550181 15.67686211 -56.625 16.5 C-58.19121094 17.19609375 -58.19121094 17.19609375 -59.7890625 17.90625 C-63.11119915 19.03787805 -65.5194203 19.27924422 -69 19 C-69.66 18.67 -70.32 18.34 -71 18 C-71 13.38 -71 8.76 -71 4 C-70.67 4 -70.34 4 -70 4 C-69.67 6.97 -69.34 9.94 -69 13 C-68.42894531 12.48050781 -67.85789063 11.96101562 -67.26953125 11.42578125 C-60.6772757 5.75581265 -54.28911602 2.54970318 -46 0 C-45.20207031 -0.24621094 -44.40414062 -0.49242187 -43.58203125 -0.74609375 C-29.60838774 -4.23349187 -14.06283374 -1.86174631 0 0 Z " fill="#969294" transform="translate(202,207)"/>
<path d="M0 0 C4.24297864 3.80836798 6.63698661 7.52447352 9 12.6875 C9.3410376 13.42355469 9.6820752 14.15960938 10.03344727 14.91796875 C22.67921025 43.22821858 21.42011445 73.57313859 10.76171875 102.25634766 C9.80701765 104.4417564 8.57456305 106.21455797 7 108 C7 107.34 7 106.68 7 106 C6.34 106 5.68 106 5 106 C4 103 4 103 4.68286133 101.28222656 C5.0414624 100.65799805 5.40006348 100.03376953 5.76953125 99.390625 C16.74337812 78.679554 15.96165934 51.06373143 9.984375 28.984375 C7.76010817 22.24096285 5.10359937 15.3539906 1.32421875 9.328125 C-0.47881667 6.15818662 -0.2105203 3.57884509 0 0 Z " fill="#F1CBA2" transform="translate(202,66)"/>
<path d="M0 0 C2.31 0.33 4.62 0.66 7 1 C6.67 2.65 6.34 4.3 6 6 C6.99 6.33 7.98 6.66 9 7 C8.505 5.515 8.505 5.515 8 4 C10.46800047 5.15173355 12.04783565 6.04783565 14 8 C15.60450824 8.87213688 17.232905 9.70087958 18.875 10.5 C19.73867187 10.9228125 20.60234375 11.345625 21.4921875 11.78125 C22.31976563 12.1834375 23.14734375 12.585625 24 13 C25.33423059 13.66486912 26.66790813 14.33085617 28 15 C28 15.66 28 16.32 28 17 C26.375 17.6875 26.375 17.6875 24 18 C21.99187074 17.01642648 19.99145391 16.01691264 18 15 C17.01 15.33 16.02 15.66 15 16 C15.495 16.99 15.495 16.99 16 18 C14.91516327 17.68406136 14.91516327 17.68406136 13.80841064 17.36174011 C6.31738945 15.31567979 -0.58291863 14.53525353 -8.328125 14.48828125 C-10.00065338 14.46135445 -10.00065338 14.46135445 -11.70697021 14.43388367 C-15.22127652 14.38028465 -18.73545106 14.34604775 -22.25 14.3125 C-24.6523619 14.2792824 -27.05470651 14.24478872 -29.45703125 14.20898438 C-35.30456909 14.12458793 -41.15212513 14.05602795 -47 14 C-47 13.67 -47 13.34 -47 13 C-20.27 12.505 -20.27 12.505 7 12 C7.33 11.34 7.66 10.68 8 10 C-21.205 9.505 -21.205 9.505 -51 9 C-51 8.67 -51 8.34 -51 8 C-50.236875 7.855625 -49.47375 7.71125 -48.6875 7.5625 C-45.91827092 7.0367406 -45.91827092 7.0367406 -43 6 C-40.98695222 6 -38.97380756 6.0045009 -36.9609375 6.03125 C-30.63187681 5.96445253 -24.31279749 5.43376277 -18 5 C-21.3 4.67 -24.6 4.34 -28 4 C-28 3.67 -28 3.34 -28 3 C-22.02872819 2.01445028 -16.10508542 1.68944649 -10.0625 1.4375 C-9.09248047 1.39431641 -8.12246094 1.35113281 -7.12304688 1.30664062 C-4.74881399 1.20137907 -2.37449079 1.09924293 0 1 C0 0.67 0 0.34 0 0 Z M-8 5 C-8 5.33 -8 5.66 -8 6 C-4.7 6 -1.4 6 2 6 C2 5.67 2 5.34 2 5 C-1.3 5 -4.6 5 -8 5 Z " fill="#8B8486" transform="translate(100,208)"/>
<path d="M0 0 C1.0096582 -0.01812744 2.01931641 -0.03625488 3.05957031 -0.05493164 C12.11527805 0.01761574 20.40470159 2.4171459 27.9375 7.5625 C28.67355469 8.04847656 29.40960938 8.53445312 30.16796875 9.03515625 C30.69003906 9.51855469 31.21210937 10.00195312 31.75 10.5 C31.75 11.49 31.75 12.48 31.75 13.5 C33.18750191 15.18798827 33.18750191 15.18798827 34.75 16.5 C34.42 17.16 34.09 17.82 33.75 18.5 C31.47532419 17.40322765 29.20545476 16.29801578 26.9375 15.1875 C26.29490234 14.87876953 25.65230469 14.57003906 24.99023438 14.25195312 C21.79392384 12.67863965 19.04422893 11.27183792 16.75 8.5 C16.75 9.16 16.75 9.82 16.75 10.5 C15.76 10.17 14.77 9.84 13.75 9.5 C13.255 7.025 13.255 7.025 12.75 4.5 C12.09 4.83 11.43 5.16 10.75 5.5 C8.93828902 5.65306901 7.1216206 5.74946661 5.3046875 5.81640625 C4.22832031 5.85830078 3.15195313 5.90019531 2.04296875 5.94335938 C0.91503906 5.98267578 -0.21289062 6.02199219 -1.375 6.0625 C-2.51066406 6.10568359 -3.64632812 6.14886719 -4.81640625 6.19335938 C-7.62747768 6.2996604 -10.43863945 6.40169405 -13.25 6.5 C-12.26 7.16 -11.27 7.82 -10.25 8.5 C-19.29039783 9.77041977 -28.09435229 10.84915606 -37.25 10.5 C-37.25 10.83 -37.25 11.16 -37.25 11.5 C-39.23 11.5 -41.21 11.5 -43.25 11.5 C-42.59 9.52 -41.93 7.54 -41.25 5.5 C-40.52071289 5.35506104 -39.79142578 5.21012207 -39.04003906 5.06079102 C-37.34785302 4.72066577 -35.65674307 4.37504034 -33.96777344 4.01928711 C-22.65624151 1.65979054 -11.57167071 0.09157563 0 0 Z " fill="#6D6769" transform="translate(92.25,204.5)"/>
<path d="M0 0 C11.22 0 22.44 0 34 0 C34 0.66 34 1.32 34 2 C35.98 2 37.96 2 40 2 C40 2.33 40 2.66 40 3 C39.31035156 3.08636719 38.62070313 3.17273438 37.91015625 3.26171875 C31.10683498 4.2789506 24.05216283 5.94783717 19 11 C18.25771574 22.92021192 19.42607166 35.08946052 20 47 C19.67 47 19.34 47 19 47 C18.67 50.3 18.34 53.6 18 57 C17.67 57 17.34 57 17 57 C16.98240128 56.43703217 16.96480255 55.87406433 16.94667053 55.29403687 C16.75440355 49.41850904 16.50108862 43.54784506 16.21264648 37.67626953 C16.11306713 35.48681901 16.02891605 33.29660883 15.96069336 31.10595703 C15.85970237 27.95016768 15.7028484 24.80130081 15.53515625 21.6484375 C15.51598648 20.67321136 15.49681671 19.69798523 15.47706604 18.69320679 C15.21310039 14.60141471 15.02185507 12.00453336 12.02145386 9.05499268 C7.93504878 6.26573258 3.81815283 4.2354238 -1 3 C-0.67 2.01 -0.34 1.02 0 0 Z " fill="#463E4E" transform="translate(111,161)"/>
<path d="M0 0 C5.6028472 3.23697287 7.50575899 11.19250685 9.38818359 17.00488281 C9.86865234 19.07958984 9.86865234 19.07958984 9.86865234 23.07958984 C6.73583984 23.51318359 6.73583984 23.51318359 2.86865234 23.07958984 C0.4432442 21.10550688 -1.22843683 18.69721587 -3.00634766 16.14208984 C-3.73337891 15.15305664 -3.73337891 15.15305664 -4.47509766 14.14404297 C-5.70750421 12.46583572 -6.92094444 10.77373552 -8.13134766 9.07958984 C-8.46134766 8.74958984 -8.79134766 8.41958984 -9.13134766 8.07958984 C-10.12134766 9.56458984 -10.12134766 9.56458984 -11.13134766 11.07958984 C-13.63134766 12.57958984 -13.63134766 12.57958984 -16.13134766 14.07958984 C-17.12134766 15.56458984 -17.12134766 15.56458984 -18.13134766 17.07958984 C-19.12134766 17.40958984 -20.11134766 17.73958984 -21.13134766 18.07958984 C-19.25450027 13.93920792 -16.53735332 10.71111034 -13.68994141 7.20068359 C-11.95799176 5.07105633 -11.95799176 5.07105633 -11.13134766 2.07958984 C-14.09309889 2.69236596 -15.51193548 3.33331506 -18.13134766 5.07958984 C-18.46134766 4.08958984 -18.79134766 3.09958984 -19.13134766 2.07958984 C-13.36640744 -2.16295839 -6.64652874 -2.11098947 0 0 Z " fill="#4F4450" transform="translate(188.13134765625,162.92041015625)"/>
<path d="M0 0 C0.33 0 0.66 0 1 0 C1.13234137 9.86852755 1.26283693 19.73707776 1.39115143 29.60565853 C1.46248077 35.08656143 1.53516105 40.56744409 1.60890198 46.04831505 C1.65605949 49.58538344 1.70149758 53.12247312 1.74685669 56.65956497 C1.78115792 59.27033518 1.81812511 61.88105901 1.85522461 64.49179077 C1.95575729 71.94074351 2.02281777 79.37976952 1.890625 86.82861328 C1.87350464 87.97616592 1.85638428 89.12371857 1.83874512 90.30604553 C1.80215244 92.34131916 1.749042 94.37641222 1.6739502 96.41062927 C1.57418035 102.11127759 2.51462816 106.11879008 5.13269043 111.2049408 C6 113 6 113 6 115 C6.66 115 7.32 115 8 115 C8.49628906 116.12535156 8.99257812 117.25070313 9.50390625 118.41015625 C9.82939453 119.14564697 10.15488281 119.8811377 10.49023438 120.63891602 C11.21077666 122.26751876 11.92949938 123.89692765 12.64648438 125.52709961 C14.38766092 129.46432355 16.15774188 133.37113082 18.08984375 137.21875 C24.32053609 149.67702711 24.32053609 149.67702711 23 157 C21.25 159.5625 21.25 159.5625 19 161 C17.68 161 16.36 161 15 161 C13.68 158.36 12.36 155.72 11 153 C13.97 152.67 16.94 152.34 20 152 C19.57394266 147.63291227 18.37005672 144.68422007 16.09181499 140.95786953 C14.90540413 138.83036836 14.06978657 136.70577353 13.21846008 134.42408752 C11.78121442 130.75129786 10.1592994 127.33157753 8.2408905 123.88633728 C0.1606079 109.13855145 -1.51234621 97.1964215 -1.07421875 80.56640625 C-1.05363101 78.22277024 -1.03800683 75.87908598 -1.02705383 73.53538513 C-0.9856126 67.44990796 -0.87806794 61.36744922 -0.75531006 55.28314209 C-0.64155185 49.04139006 -0.59228486 42.79913668 -0.53710938 36.55664062 C-0.42012865 24.36978776 -0.23309798 12.18514751 0 0 Z " fill="#786D74" transform="translate(201,57)"/>
<path d="M0 0 C2.03120707 3.04681061 2.24659875 3.60118324 2.1953125 7.01171875 C2.18886719 7.76904297 2.18242187 8.52636719 2.17578125 9.30664062 C2.15902344 10.09232422 2.14226562 10.87800781 2.125 11.6875 C2.11597656 12.48478516 2.10695312 13.28207031 2.09765625 14.10351562 C2.07411585 16.069139 2.03824547 18.03460775 2 20 C8.08077589 20.32154583 8.08077589 20.32154583 13.75 18.5 C17 17 17 17 21 17 C19.10593448 22.18613179 14.9762172 23.55769289 10.2265625 25.78515625 C4.47682163 27.95001026 0.01060797 28.08127469 -5.7734375 26.00390625 C-13.19506726 22.59080717 -13.19506726 22.59080717 -15 18 C-13.375 17.3125 -13.375 17.3125 -11 17 C-8.98347806 17.9662501 -6.98320018 18.96708324 -5 20 C-3.68 20 -2.36 20 -1 20 C-1.61875 19.071875 -2.2375 18.14375 -2.875 17.1875 C-4.25 15.125 -5.625 13.0625 -7 11 C-4.13275314 11.57344937 -3.1385485 11.8614515 -1 14 C-0.67 9.38 -0.34 4.76 0 0 Z " fill="#463E4C" transform="translate(129,205)"/>
<path d="M0 0 C0.89589844 0.00322266 1.79179688 0.00644531 2.71484375 0.00976562 C4.12056641 0.02233398 4.12056641 0.02233398 5.5546875 0.03515625 C6.49957031 0.03966797 7.44445312 0.04417969 8.41796875 0.04882812 C10.75527137 0.06063268 13.09244811 0.07709866 15.4296875 0.09765625 C15.4296875 0.42765625 15.4296875 0.75765625 15.4296875 1.09765625 C9.1596875 1.42765625 2.8896875 1.75765625 -3.5703125 2.09765625 C-4.653125 4.51078125 -4.653125 4.51078125 -5.7578125 6.97265625 C-7.87988806 11.64963865 -10.12964888 16.24288761 -12.44921875 20.82421875 C-13.94778423 23.86312157 -15.24278662 26.98085635 -16.5703125 30.09765625 C-17.22972668 31.41381492 -17.89675989 32.72617666 -18.5703125 34.03515625 C-22.27120415 41.24407019 -22.27120415 41.24407019 -23.5703125 49.09765625 C-16.6403125 49.59265625 -16.6403125 49.59265625 -9.5703125 50.09765625 C-11.5703125 55.09765625 -11.5703125 55.09765625 -12.5703125 56.09765625 C-14.58625832 56.33193403 -16.6087865 56.51101749 -18.6328125 56.66015625 C-19.73753906 56.74394531 -20.84226562 56.82773438 -21.98046875 56.9140625 C-22.83511719 56.97464844 -23.68976562 57.03523438 -24.5703125 57.09765625 C-26.9619594 53.51018589 -27.35464754 51.39402427 -27.5703125 47.09765625 C-26.70517234 44.40957438 -25.82323524 42.14331252 -24.60546875 39.6328125 C-24.29330917 38.95463974 -23.9811496 38.27646698 -23.65953064 37.57774353 C-22.66671654 35.43061476 -21.65035053 33.2956615 -20.6328125 31.16015625 C-19.95218457 29.69930814 -19.27313106 28.23772539 -18.59570312 26.77539062 C-16.93866679 23.2073887 -15.26042753 19.65010107 -13.5703125 16.09765625 C-12.9103125 16.09765625 -12.2503125 16.09765625 -11.5703125 16.09765625 C-11.28027344 15.10185547 -11.28027344 15.10185547 -10.984375 14.0859375 C-8.06545329 4.18761389 -8.06545329 4.18761389 -6.5703125 1.09765625 C-4.16971433 -0.10264283 -2.67670601 -0.01694118 0 0 Z " fill="#6B6770" transform="translate(58.5703125,159.90234375)"/>
<path d="M0 0 C0.33 0.66 0.66 1.32 1 2 C1.81150513 1.89389404 1.81150513 1.89389404 2.6394043 1.78564453 C12.0320871 0.74068676 21.43479173 0.84906375 30.87182617 0.86962891 C33.8228054 0.87501882 36.77363459 0.86964269 39.72460938 0.86328125 C41.61458367 0.86394157 43.50455787 0.86522176 45.39453125 0.8671875 C46.26962845 0.86516327 47.14472565 0.86313904 48.04634094 0.86105347 C52.47818331 0.877988 56.63704305 1.1060133 61 2 C60.67 2.99 60.34 3.98 60 5 C39.30521233 5.11355404 18.67539319 5.04544753 -2 4 C-1.34 2.68 -0.68 1.36 0 0 Z " fill="#30243C" transform="translate(47,216)"/>
<path d="M0 0 C0.33 0 0.66 0 1 0 C1.33 9.57 1.66 19.14 2 29 C2.66 29 3.32 29 4 29 C4.15855469 29.84820312 4.31710938 30.69640625 4.48046875 31.5703125 C6.05055831 39.46413293 8.1072114 46.41112874 11.20703125 53.84375 C12.15456513 57.6152149 11.53855324 59.48934931 10 63 C7.89119134 59.83678702 6.48104428 56.62669621 5.0625 53.125 C4.30646484 51.30355469 4.30646484 51.30355469 3.53515625 49.4453125 C-0.48652781 38.43553156 -1.43320993 27.97495695 -1.25 16.3125 C-1.24350428 14.94336488 -1.23829011 13.57422306 -1.234375 12.20507812 C-1.15517762 2.31035524 -1.15517762 2.31035524 0 0 Z " fill="#EBB784" transform="translate(37,113)"/>
<path d="M0 0 C0.33 0 0.66 0 1 0 C3.80690457 22.5012514 1.66180552 42.40185292 -8 63 C-8.33 62.34 -8.66 61.68 -9 61 C-9.66 61 -10.32 61 -11 61 C-12 58 -12 58 -10.29296875 54.5625 C-9.91833496 53.85480469 -9.54370117 53.14710938 -9.15771484 52.41796875 C-1.39926891 36.2139096 0.1905003 17.68517976 0 0 Z " fill="#EBBD89" transform="translate(218,111)"/>
<path d="M0 0 C3.9428839 1.31429463 5.43662347 3.84295034 7.8125 7.0625 C8.25609863 7.65232666 8.69969727 8.24215332 9.15673828 8.84985352 C10.04092323 10.02688645 10.92217375 11.20613017 11.80029297 12.38769531 C13.30966527 14.41616391 14.8442161 16.42516515 16.375 18.4375 C23 27.35866477 23 27.35866477 23 31 C11.78 31 0.56 31 -11 31 C-4.23682514 27.61841257 2.54055205 27.86437428 9.9375 27.9375 C10.81212891 27.94201172 11.68675781 27.94652344 12.58789062 27.95117188 C14.72529047 27.96285166 16.86265463 27.98078311 19 28 C18.34 26.35 17.68 24.7 17 23 C15.64455078 23.03480469 15.64455078 23.03480469 14.26171875 23.0703125 C13.08222656 23.08835938 11.90273437 23.10640625 10.6875 23.125 C9.51574219 23.14820313 8.34398437 23.17140625 7.13671875 23.1953125 C4 23 4 23 1 21 C7.435 20.505 7.435 20.505 14 20 C12.86111328 18.55367187 12.86111328 18.55367187 11.69921875 17.078125 C10.69528885 15.80210194 9.69138391 14.52605924 8.6875 13.25 C7.93823242 12.29867187 7.93823242 12.29867187 7.17382812 11.328125 C6.20683217 10.09856722 5.24175574 8.86749686 4.27880859 7.63476562 C3.24112229 6.3082388 2.19420368 4.98893767 1.14453125 3.671875 C0 2 0 2 0 0 Z " fill="#30293A" transform="translate(193,187)"/>
<path d="M0 0 C13.83297735 -0.24047701 27.2894954 0.0829257 41 2 C41.495 3.485 41.495 3.485 42 5 C36.19775728 5.16739428 30.39538179 5.32797646 24.59277344 5.48217773 C22.6177866 5.53563041 20.64284971 5.59096225 18.66796875 5.64819336 C15.83344292 5.73001326 12.99880764 5.80512918 10.1640625 5.87890625 C8.83430893 5.91945885 8.83430893 5.91945885 7.47769165 5.96083069 C1.22774341 6.11387171 1.22774341 6.11387171 -1 5 C-3.04055005 4.92934383 -5.08334257 4.91578024 -7.125 4.9375 C-8.22070312 4.94652344 -9.31640625 4.95554688 -10.4453125 4.96484375 C-11.70988281 4.98224609 -11.70988281 4.98224609 -13 5 C-13 4.67 -13 4.34 -13 4 C-3.87942088 2.60450156 4.74940228 1.77159018 14 2 C7.07 1.505 7.07 1.505 0 1 C0 0.67 0 0.34 0 0 Z " fill="#6A656B" transform="translate(170,210)"/>
<path d="M0 0 C18.2018976 -0.07003081 36.40376031 -0.12295904 54.60576344 -0.15543652 C63.05696423 -0.1709161 71.50808139 -0.19202638 79.95922852 -0.22631836 C87.32385983 -0.25618741 94.68843059 -0.27556706 102.05312079 -0.28226548 C105.9539503 -0.286182 109.85460656 -0.2954088 113.75538063 -0.31719017 C117.42514341 -0.33751606 121.09466115 -0.34384179 124.76447487 -0.33932304 C126.75706731 -0.34054502 128.74963292 -0.35670752 130.74215698 -0.3732605 C131.92426254 -0.36913651 133.1063681 -0.36501251 134.32429504 -0.36076355 C135.35393781 -0.36352893 136.38358057 -0.36629431 137.44442463 -0.36914349 C140.34995919 0.05055032 141.23049928 0.71725756 143 3 C141.98486328 2.83701416 140.96972656 2.67402832 139.92382812 2.50610352 C133.38096498 1.69397555 126.80016889 1.87683227 120.21875 1.90234375 C118.79528859 1.90421197 117.37182654 1.90563397 115.94836426 1.90663147 C112.22646263 1.91042482 108.50460087 1.92022743 104.78271484 1.93133545 C100.97494038 1.94161848 97.16715939 1.94614377 93.359375 1.95117188 C85.90623195 1.96185298 78.45312159 1.97889054 71 2 C71 3.32 71 4.64 71 6 C70.34 6 69.68 6 69 6 C69 4.68 69 3.36 69 2 C46.23 1.67 23.46 1.34 0 1 C0 0.67 0 0.34 0 0 Z " fill="#968E91" transform="translate(58,53)"/>
<path d="M0 0 C2.46800047 1.15173355 4.04783565 2.04783565 6 4 C7.60450824 4.87213688 9.232905 5.70087958 10.875 6.5 C11.73867187 6.9228125 12.60234375 7.345625 13.4921875 7.78125 C14.31976563 8.1834375 15.14734375 8.585625 16 9 C17.33423059 9.66486912 18.66790813 10.33085617 20 11 C20 11.66 20 12.32 20 13 C18.375 13.6875 18.375 13.6875 16 14 C13.99187074 13.01642648 11.99145391 12.01691264 10 11 C9.01 11.33 8.02 11.66 7 12 C7.495 12.99 7.495 12.99 8 14 C7.27677551 13.78937424 6.55355103 13.57874847 5.80841064 13.36174011 C-1.68261055 11.31567979 -8.58291863 10.53525353 -16.328125 10.48828125 C-18.00065338 10.46135445 -18.00065338 10.46135445 -19.70697021 10.43388367 C-23.22127652 10.38028465 -26.73545106 10.34604775 -30.25 10.3125 C-32.6523619 10.2792824 -35.05470651 10.24478872 -37.45703125 10.20898438 C-43.30456909 10.12458793 -49.15212513 10.05602795 -55 10 C-55 9.67 -55 9.34 -55 9 C-54.33458694 8.98969254 -53.66917389 8.97938507 -52.9835968 8.96876526 C-46.05675696 8.86056859 -39.13004372 8.74598124 -32.20336914 8.62768555 C-29.61843516 8.58437894 -27.03347336 8.54270083 -24.44848633 8.50268555 C-20.73249937 8.44487972 -17.01665187 8.38121457 -13.30078125 8.31640625 C-11.56771477 8.29133751 -11.56771477 8.29133751 -9.79963684 8.26576233 C-8.17852242 8.2358445 -8.17852242 8.2358445 -6.5246582 8.20532227 C-5.57645706 8.18977798 -4.62825592 8.1742337 -3.65132141 8.15821838 C-1.01737149 8.00103665 1.42922317 7.58123795 4 7 C3.34 6.030625 2.68 5.06125 2 4.0625 C0 1 0 1 0 0 Z " fill="#ADA9AE" transform="translate(108,212)"/>
<path d="M0 0 C4.95 0 9.9 0 15 0 C14.67 0.66 14.34 1.32 14 2 C13.01 2.33 12.02 2.66 11 3 C9.08710263 5.77518824 9.08710263 5.77518824 7.3125 9.0625 C6.68988281 10.16722656 6.06726563 11.27195313 5.42578125 12.41015625 C4.95527344 13.26480469 4.48476562 14.11945313 4 15 C1.03 14.67 -1.94 14.34 -5 14 C-4.45734262 8.57342622 -2.53634391 4.74541763 0 0 Z " fill="#4A4155" transform="translate(66,165)"/>
<path d="M0 0 C0.76747559 -0.00064453 1.53495117 -0.00128906 2.32568359 -0.00195312 C10.85039725 0.07420675 19.24561155 1.06989775 27.6875 2.1875 C27.6875 2.5175 27.6875 2.8475 27.6875 3.1875 C19.85839602 4.48056492 12.03279057 4.26476584 4.125 4.1875 C1.37370107 4.16068609 -1.37752441 4.14080469 -4.12890625 4.125 C-5.94563843 4.10759766 -5.94563843 4.10759766 -7.79907227 4.08984375 C-11.3738903 4.18920635 -14.78527614 4.61397684 -18.3125 5.1875 C-18.3125 6.1775 -18.3125 7.1675 -18.3125 8.1875 C-20.2925 8.5175 -22.2725 8.8475 -24.3125 9.1875 C-23.6525 8.5275 -22.9925 7.8675 -22.3125 7.1875 C-24.2925 7.5175 -26.2725 7.8475 -28.3125 8.1875 C-27.9825 7.1975 -27.6525 6.2075 -27.3125 5.1875 C-24.8359375 4.0546875 -24.8359375 4.0546875 -21.6875 3.0625 C-20.66398438 2.72992188 -19.64046875 2.39734375 -18.5859375 2.0546875 C-12.41342291 0.41948674 -6.36290174 -0.00562715 0 0 Z " fill="#7F7A81" transform="translate(174.3125,204.8125)"/>
<path d="M0 0 C0.33 0.99 0.66 1.98 1 3 C2.32 2.34 3.64 1.68 5 1 C5.33 1.66 5.66 2.32 6 3 C5.21366078 4.14949588 4.42073742 5.29448989 3.625 6.4375 C3.18414062 7.07558594 2.74328125 7.71367187 2.2890625 8.37109375 C1 10 1 10 -1 11 C0.65 11.33 2.3 11.66 4 12 C2.96795898 15.21079428 1.41251338 16.59940291 -1.375 18.3125 C-5 20 -5 20 -7.4375 19.75 C-7.953125 19.5025 -8.46875 19.255 -9 19 C-9 10.85550299 -4.98766509 6.1806146 0 0 Z " fill="#756A64" transform="translate(156,182)"/>
<path d="M0 0 C0.66 0 1.32 0 2 0 C3.73164754 3.52738752 5.43941475 7.06530415 7.12695312 10.61401367 C7.98401308 12.40410898 8.85903901 14.18556699 9.734375 15.96679688 C12.89107799 22.63721094 14.94070481 27.59574282 14 35 C12.25 37.5625 12.25 37.5625 10 39 C8.68 39 7.36 39 6 39 C4.68 36.36 3.36 33.72 2 31 C4.97 30.67 7.94 30.34 11 30 C10.57557819 25.64967645 9.38665711 22.70789651 7.11328125 18.99609375 C5.38960335 15.90556951 4.18793102 12.63362065 2.9296875 9.33203125 C2.04801817 6.99983265 2.04801817 6.99983265 0.8828125 4.88671875 C0 3 0 3 0 0 Z " fill="#686671" transform="translate(210,179)"/>
<path d="M0 0 C3.94388172 0.58874493 6.82350283 1.78635272 10.25 3.8125 C11.12140625 4.31394531 11.9928125 4.81539062 12.890625 5.33203125 C15.2864107 7.22647661 15.53872725 8.07061851 16 11 C17.47890069 12.73026102 17.47890069 12.73026102 19 14 C18.67 14.66 18.34 15.32 18 16 C15.72532419 14.90322765 13.45545476 13.79801578 11.1875 12.6875 C10.54490234 12.37876953 9.90230469 12.07003906 9.24023438 11.75195312 C6.04392384 10.17863965 3.29422893 8.77183792 1 6 C1 6.66 1 7.32 1 8 C0.01 7.67 -0.98 7.34 -2 7 C-2.6875 4.9375 -2.6875 4.9375 -3 3 C-1.35 2.34 0.3 1.68 2 1 C1.34 0.67 0.68 0.34 0 0 Z " fill="#848182" transform="translate(108,207)"/>
<path d="M0 0 C0.68318802 -0.00014603 1.36637604 -0.00029205 2.07026672 -0.0004425 C4.32658065 0.0002537 6.58281184 0.00803243 8.83911133 0.01586914 C10.40424047 0.01773436 11.96937019 0.01915777 13.53450012 0.02015686 C17.65267551 0.02397387 21.7708156 0.03379721 25.88897705 0.04486084 C30.09175133 0.05509248 34.29453131 0.05965824 38.49731445 0.06469727 C46.74277336 0.0754202 54.98820358 0.09248685 63.23364258 0.11352539 C63.23364258 0.44352539 63.23364258 0.77352539 63.23364258 1.11352539 C54.81864258 1.60852539 54.81864258 1.60852539 46.23364258 2.11352539 C46.23364258 2.44352539 46.23364258 2.77352539 46.23364258 3.11352539 C41.28364258 3.11352539 36.33364258 3.11352539 31.23364258 3.11352539 C31.23364258 2.45352539 31.23364258 1.79352539 31.23364258 1.11352539 C14.89864258 1.60852539 14.89864258 1.60852539 -1.76635742 2.11352539 C-1.76635742 2.44352539 -1.76635742 2.77352539 -1.76635742 3.11352539 C-5.06635742 3.11352539 -8.36635742 3.11352539 -11.76635742 3.11352539 C-8.22670191 -0.42613012 -4.77370166 -0.00857038 0 0 Z " fill="#564F5F" transform="translate(113.766357421875,159.886474609375)"/>
<path d="M0 0 C2.31 0.33 4.62 0.66 7 1 C6.67 2.65 6.34 4.3 6 6 C1.545 6.495 1.545 6.495 -3 7 C-3 6.67 -3 6.34 -3 6 C-3.54785156 6.02320313 -4.09570312 6.04640625 -4.66015625 6.0703125 C-12.58535134 6.25072345 -20.17815332 5.16806244 -28 4 C-28 3.67 -28 3.34 -28 3 C-22.02872819 2.01445028 -16.10508542 1.68944649 -10.0625 1.4375 C-8.6074707 1.37272461 -8.6074707 1.37272461 -7.12304688 1.30664062 C-4.74881399 1.20137907 -2.37449079 1.09924293 0 1 C0 0.67 0 0.34 0 0 Z " fill="#95928F" transform="translate(100,208)"/>
<path d="M0 0 C0.82638376 2.89234315 1 4.88742431 1 8 C1.66 7.34 2.32 6.68 3 6 C2.9278125 6.804375 2.855625 7.60875 2.78125 8.4375 C1.81925145 20.62281491 1.90134303 32.78323165 2 45 C1.67 45 1.34 45 1 45 C-0.12255446 39.39666091 -0.32696009 33.81758143 -0.5625 28.125 C-0.706875 24.78375 -0.85125 21.4425 -1 18 C-1.33 25.92 -1.66 33.84 -2 42 C-2.33 42 -2.66 42 -3 42 C-3.61916858 11.4607005 -3.61916858 11.4607005 0 0 Z " fill="#F2CFA7" transform="translate(38,97)"/>
<path d="M0 0 C3.68548192 3.68548192 5 7.86850209 5 13 C0.77202073 13.88082902 0.77202073 13.88082902 -2 13 C-5.07589556 9.95085136 -7.55020182 6.56334281 -10 3 C-6.52674819 1.8422494 -3.63932552 1.93133348 0 2 C0 1.34 0 0.68 0 0 Z " fill="#5B5368" transform="translate(193,173)"/>
<path d="M0 0 C11.22 0 22.44 0 34 0 C34 0.66 34 1.32 34 2 C35.98 2 37.96 2 40 2 C40 2.33 40 2.66 40 3 C31.26961496 4.26128943 22.65016526 3.91620728 13.875 3.5625 C12.42710609 3.50914459 10.97918931 3.4564057 9.53125 3.40429688 C6.0205416 3.27662962 2.51021504 3.14065099 -1 3 C-0.67 2.01 -0.34 1.02 0 0 Z " fill="#B1ACB4" transform="translate(111,161)"/>
<path d="M0 0 C15.38374192 -0.60460121 29.55507836 1.51705287 44 7 C43.0409375 7.2165625 43.0409375 7.2165625 42.0625 7.4375 C40.02454854 7.81007181 40.02454854 7.81007181 39 9 C35.76630321 10.6168484 32.69371743 9.00851816 29.375 8.0625 C28.66859375 7.86720703 27.9621875 7.67191406 27.234375 7.47070312 C25.48780156 6.98685508 23.74365876 6.49424877 22 6 C22 5.01 22 4.02 22 3 C14.74 2.34 7.48 1.68 0 1 C0 0.67 0 0.34 0 0 Z " fill="#F0C599" transform="translate(121,30)"/>
<path d="M0 0 C0.33 0 0.66 0 1 0 C1.33917131 4.14537705 1.67026953 8.29136218 2 12.4375 C2.09539062 13.60216797 2.19078125 14.76683594 2.2890625 15.96679688 C2.79138362 22.33551102 3.1093176 28.61175303 3 35 C2.67 35 2.34 35 2 35 C1.67 38.3 1.34 41.6 1 45 C0.67 45 0.34 45 0 45 C-0.28778292 40.71348878 -0.57250377 36.42678797 -0.85449219 32.13989258 C-0.95067301 30.68410871 -1.04766399 29.22837812 -1.14550781 27.77270508 C-1.2866817 25.67022251 -1.42485959 23.56756025 -1.5625 21.46484375 C-1.64628906 20.202771 -1.73007813 18.94069824 -1.81640625 17.64038086 C-1.9956441 14.08637076 -2.03207049 10.55782035 -2 7 C-1.67 7 -1.34 7 -1 7 C-0.67 4.69 -0.34 2.38 0 0 Z " fill="#585359" transform="translate(128,173)"/>
<path d="M0 0 C2.125 0.375 2.125 0.375 4 1 C2.39531044 4.64937464 0.14380135 7.48721928 -2.375 10.5625 C-3.14585937 11.51253906 -3.91671875 12.46257812 -4.7109375 13.44140625 C-6.69459021 15.65862898 -8.5496496 17.33846103 -11 19 C-11.66 18.67 -12.32 18.34 -13 18 C-12.505 16.515 -12.505 16.515 -12 15 C-11.34 15 -10.68 15 -10 15 C-9.896875 14.443125 -9.79375 13.88625 -9.6875 13.3125 C-9 11 -9 11 -7.4375 8.4375 C-5.74600749 6.04095169 -5.74600749 6.04095169 -6 3 C-5.38125 2.87625 -4.7625 2.7525 -4.125 2.625 C-1.80879168 2.12802644 -1.80879168 2.12802644 0 0 Z " fill="#B58348" transform="translate(174,164)"/>
<path d="M0 0 C6.79326692 5.59445511 11.00661035 14.02888679 11.875 22.75 C11.94177855 24.16570519 11.99372891 25.58273459 12 27 C9 23.25 9 23.25 9 21 C8.34 21 7.68 21 7 21 C5.81516981 18.82075876 4.65261867 16.63370585 3.5 14.4375 C3.16613281 13.82841797 2.83226562 13.21933594 2.48828125 12.59179688 C0.23171537 8.23984839 -0.36065905 5.00414429 0 0 Z " fill="#EDC18F" transform="translate(202,66)"/>
<path d="M0 0 C0.74386963 0.00338379 1.48773926 0.00676758 2.25415039 0.01025391 C21.05834183 0.18334183 21.05834183 0.18334183 24 3.125 C19.12651177 3.91848625 14.47059816 4.24313526 9.53515625 4.22265625 C8.51789711 4.22053383 8.51789711 4.22053383 7.48008728 4.21836853 C5.34084422 4.21282745 3.20171075 4.20028653 1.0625 4.1875 C-0.39908702 4.18247736 -1.86067569 4.1779158 -3.32226562 4.17382812 C-6.88154526 4.16287745 -10.44076191 4.14565445 -14 4.125 C-13.67 3.135 -13.34 2.145 -13 1.125 C-8.66321221 0.05774363 -4.43934184 -0.0289143 0 0 Z " fill="#EAAC73" transform="translate(121,30.875)"/>
<path d="M0 0 C-0.66 0.66 -1.32 1.32 -2 2 C-2.33 2.66 -2.66 3.32 -3 4 C1.95 4 6.9 4 12 4 C8.03346594 5.98326703 6.00683129 6.32394704 1.6875 6.5625 C-2.93013894 6.85370246 -7.43527246 7.25690482 -12 8 C-11.01 7.67 -10.02 7.34 -9 7 C-9 6.34 -9 5.68 -9 5 C-11.64 5.99 -14.28 6.98 -17 8 C-17.33 7.67 -17.66 7.34 -18 7 C-18.99 6.67 -19.98 6.34 -21 6 C-20.67 4.68 -20.34 3.36 -20 2 C-16.25 0.875 -16.25 0.875 -14 2 C-11.99199544 1.71887936 -9.98985949 1.38932033 -8 1 C-8.33 1.66 -8.66 2.32 -9 3 C-8.34 3 -7.68 3 -7 3 C-7 2.01 -7 1.02 -7 0 C-3.86650268 -1.04449911 -3.01031744 -0.93423645 0 0 Z " fill="#A7A2A3" transform="translate(163,210)"/>
<path d="M0 0 C0.33 0 0.66 0 1 0 C1.90857548 6.95132348 2.15212157 13.74359353 2.125 20.75 C2.12886719 21.76449219 2.13273438 22.77898437 2.13671875 23.82421875 C2.13542969 24.80519531 2.13414062 25.78617188 2.1328125 26.796875 C2.13168457 27.67698242 2.13055664 28.55708984 2.12939453 29.46386719 C1.99681459 32.0624341 1.57310014 34.46515589 1 37 C0.34 37 -0.32 37 -1 37 C-1.66 38.32 -2.32 39.64 -3 41 C-2.85899143 38.72886197 -2.71203245 36.45809275 -2.5625 34.1875 C-2.48128906 32.92292969 -2.40007812 31.65835938 -2.31640625 30.35546875 C-2 27 -2 27 -1 24 C-0.85110253 22.15533558 -0.7520899 20.30642725 -0.68359375 18.45703125 C-0.64169922 17.38388672 -0.59980469 16.31074219 -0.55664062 15.20507812 C-0.49766602 13.52575195 -0.49766602 13.52575195 -0.4375 11.8125 C-0.39431641 10.68134766 -0.35113281 9.55019531 -0.30664062 8.38476562 C-0.20050901 5.58996646 -0.09845615 2.79507838 0 0 Z " fill="#E9AD73" transform="translate(218,111)"/>
<path d="M0 0 C0.33 0.66 0.66 1.32 1 2 C1.65742187 1.91621094 2.31484375 1.83242187 2.9921875 1.74609375 C9.51691629 1.04764717 15.83799089 1.00113177 22.375 1.375 C23.13538574 1.41810303 23.89577148 1.46120605 24.67919922 1.50561523 C28.84268782 1.77356252 32.89253993 2.23066621 37 3 C37 3.33 37 3.66 37 4 C24.13 4 11.26 4 -2 4 C-1.34 2.68 -0.68 1.36 0 0 Z " fill="#2D2339" transform="translate(47,216)"/>
<path d="M0 0 C13.83297735 -0.24047701 27.2894954 0.0829257 41 2 C41 2.66 41 3.32 41 4 C32.09 3.67 23.18 3.34 14 3 C14 2.67 14 2.34 14 2 C7.07 1.505 7.07 1.505 0 1 C0 0.67 0 0.34 0 0 Z " fill="#757173" transform="translate(170,210)"/>
<path d="M0 0 C0 0.33 0 0.66 0 1 C3.96 1.33 7.92 1.66 12 2 C6.7681045 4.61594775 2.27086791 4.56700685 -3.5 4.8125 C-4.54542969 4.87630859 -5.59085938 4.94011719 -6.66796875 5.00585938 C-7.67472656 5.05162109 -8.68148437 5.09738281 -9.71875 5.14453125 C-11.09450195 5.21184448 -11.09450195 5.21184448 -12.49804688 5.28051758 C-15.47654154 4.94657043 -16.79283617 3.97063589 -19 2 C-12.56971459 0.67611771 -6.5705166 -0.24794402 0 0 Z " fill="#888389" transform="translate(87,205)"/>
<path d="M0 0 C1.53720703 0.01450195 1.53720703 0.01450195 3.10546875 0.02929688 C4.70068359 0.06700195 4.70068359 0.06700195 6.328125 0.10546875 C7.94654297 0.12577148 7.94654297 0.12577148 9.59765625 0.14648438 C12.2583192 0.18180291 14.91796796 0.23112676 17.578125 0.29296875 C15.17195867 2.69913508 13.85447678 2.66890175 10.578125 3.29296875 C9.76214844 3.83050781 9.76214844 3.83050781 8.9296875 4.37890625 C5.35612056 5.76796715 2.01737072 4.98504362 -1.671875 4.41796875 C-2.41695312 4.31355469 -3.16203125 4.20914063 -3.9296875 4.1015625 C-5.76202011 3.84315662 -7.59219734 3.56954793 -9.421875 3.29296875 C-6.23351134 0.44902709 -4.23901246 -0.07065021 0 0 Z " fill="#ACA8B5" transform="translate(162.421875,160.70703125)"/>
<path d="M0 0 C0 0.33 0 0.66 0 1 C-2.31 1.33 -4.62 1.66 -7 2 C-7 2.66 -7 3.32 -7 4 C-5.35 4.33 -3.7 4.66 -2 5 C-2 5.33 -2 5.66 -2 6 C-3.91666667 6.47916667 -5.83333333 6.95833333 -7.75 7.4375 C-8.81734375 7.70433594 -9.8846875 7.97117188 -10.984375 8.24609375 C-12.78645833 8.69661458 -14.58854167 9.14713542 -16.390625 9.59765625 C-16.92171875 9.73042969 -17.4528125 9.86320313 -18 10 C-17.67 7.69 -17.34 5.38 -17 3 C-11.10261508 0.70657253 -6.33393082 -0.34548714 0 0 Z " fill="#726B75" transform="translate(166,216)"/>
<path d="M0 0 C5.75620436 0.01776606 11.32159384 0.39608267 17.03125 1.1328125 C16.04125 1.6278125 16.04125 1.6278125 15.03125 2.1328125 C15.03125 2.7928125 15.03125 3.4528125 15.03125 4.1328125 C9.74819183 5.82339111 4.36025731 5.42469306 -0.96875 4.1328125 C-0.96875 4.7928125 -0.96875 5.4528125 -0.96875 6.1328125 C-1.95875 6.1328125 -2.94875 6.1328125 -3.96875 6.1328125 C-2.90314077 0.1958468 -2.90314077 0.1958468 0 0 Z " fill="#807A80" transform="translate(53.96875,208.8671875)"/>
<path d="M0 0 C1.53202706 0.25195908 3.05257128 0.57596777 4.5625 0.9375 C5.38878906 1.13214844 6.21507813 1.32679688 7.06640625 1.52734375 C8.02353516 1.76130859 8.02353516 1.76130859 9 2 C7.7508258 5.45925163 6.32472205 8.14693203 4 11 C3.67 10.34 3.34 9.68 3 9 C0.47266765 8.34444881 0.47266765 8.34444881 -2 8 C-1.125 1.125 -1.125 1.125 0 0 Z " fill="#484152" transform="translate(60,178)"/>
<path d="M0 0 C1.52519276 0.08937803 3.04681929 0.24537146 4.5625 0.4375 C5.80193359 0.59025391 5.80193359 0.59025391 7.06640625 0.74609375 C7.70449219 0.82988281 8.34257813 0.91367188 9 1 C8.125 5.75 8.125 5.75 7 8 C4.03 7.67 1.06 7.34 -2 7 C-1.125 1.125 -1.125 1.125 0 0 Z " fill="#332A40" transform="translate(63,172)"/>
<path d="M0 0 C9.9 0 19.8 0 30 0 C28.68 0.33 27.36 0.66 26 1 C26 1.66 26 2.32 26 3 C28.64 3 31.28 3 34 3 C34 3.33 34 3.66 34 4 C26.41 4 18.82 4 11 4 C11 3.67 11 3.34 11 3 C14.465 2.505 14.465 2.505 18 2 C12.06 1.67 6.12 1.34 0 1 C0 0.67 0 0.34 0 0 Z " fill="#3A3143" transform="translate(60,217)"/>
<path d="M0 0 C-1.08520508 1.97558594 -1.08520508 1.97558594 -3 4 C-6.00268555 4.45410156 -6.00268555 4.45410156 -9.63671875 4.390625 C-10.93544922 4.37773437 -12.23417969 4.36484375 -13.57226562 4.3515625 C-14.94402103 4.31814101 -16.31576581 4.28428123 -17.6875 4.25 C-19.07093812 4.22993376 -20.45440384 4.21168319 -21.83789062 4.1953125 C-25.22595649 4.14809207 -28.61263241 4.08224069 -32 4 C-32 3.67 -32 3.34 -32 3 C-31.236875 2.855625 -30.47375 2.71125 -29.6875 2.5625 C-26.91827092 2.0367406 -26.91827092 2.0367406 -24 1 C-22.62570912 0.95584608 -21.24943509 0.96058967 -19.875 1 C-15.87733141 1.05200219 -12.0486332 0.71625519 -8.0859375 0.22265625 C-5.38361718 -0.06579367 -2.71456847 -0.06960432 0 0 Z " fill="#9C999C" transform="translate(81,213)"/>
<path d="M0 0 C0 0.33 0 0.66 0 1 C3.96 1.33 7.92 1.66 12 2 C12.33 1.34 12.66 0.68 13 0 C13 0.99 13 1.98 13 3 C1.78 3 -9.44 3 -21 3 C-14.21149019 -0.3942549 -7.42980269 -0.13454371 0 0 Z " fill="#352E3F" transform="translate(203,215)"/>
<path d="M0 0 C0.74572266 -0.00386719 1.49144531 -0.00773438 2.25976562 -0.01171875 C5.78189146 -0.00543485 8.92531445 0.17792355 12.3125 1.125 C12.3125 1.785 12.3125 2.445 12.3125 3.125 C12.9725 3.125 13.6325 3.125 14.3125 3.125 C13.9825 3.785 13.6525 4.445 13.3125 5.125 C11.85369891 4.98392253 10.39546449 4.83697585 8.9375 4.6875 C8.12539062 4.60628906 7.31328125 4.52507812 6.4765625 4.44140625 C4.3125 4.125 4.3125 4.125 2.3125 3.125 C0.9390365 2.97495027 -0.4403526 2.87661994 -1.8203125 2.80859375 C-2.62597656 2.76669922 -3.43164062 2.72480469 -4.26171875 2.68164062 C-5.10347656 2.64232422 -5.94523437 2.60300781 -6.8125 2.5625 C-7.66199219 2.51931641 -8.51148437 2.47613281 -9.38671875 2.43164062 C-11.48678223 2.32545764 -13.58711948 2.22471503 -15.6875 2.125 C-15.6875 1.795 -15.6875 1.465 -15.6875 1.125 C-10.41257567 0.24700731 -5.34276902 -0.02814453 0 0 Z " fill="#585359" transform="translate(95.6875,204.875)"/>
<path d="M0 0 C1.98 0 3.96 0 6 0 C5.01 1.485 5.01 1.485 4 3 C4.763125 2.484375 5.52625 1.96875 6.3125 1.4375 C7.199375 0.963125 8.08625 0.48875 9 0 C9.99 0.33 10.98 0.66 12 1 C12 1.66 12 2.32 12 3 C10.08717875 3.84212256 8.16957527 4.67338864 6.25 5.5 C4.64898437 6.19609375 4.64898437 6.19609375 3.015625 6.90625 C0 8 0 8 -4 8 C-4.33 7.01 -4.66 6.02 -5 5 C-4.34 5 -3.68 5 -3 5 C-3 5.66 -3 6.32 -3 7 C-2.34 6.67 -1.68 6.34 -1 6 C-1 4.68 -1 3.36 -1 2 C-0.67 1.34 -0.34 0.68 0 0 Z " fill="#A5A0A6" transform="translate(139,218)"/>
<path d="M0 0 C4.99213851 0.46801299 9.12963993 2.91715737 13 6 C13 6.66 13 7.32 13 8 C5.57142857 7 5.57142857 7 2 6 C1.67 6.66 1.34 7.32 1 8 C0.01 7.67 -0.98 7.34 -2 7 C-2.6875 4.9375 -2.6875 4.9375 -3 3 C-1.35 2.34 0.3 1.68 2 1 C1.34 0.67 0.68 0.34 0 0 Z " fill="#7E7A7D" transform="translate(108,207)"/>
<path d="M0 0 C3.98282556 1.32760852 5.52760104 3.93968669 7.9375 7.1875 C8.36740234 7.75275391 8.79730469 8.31800781 9.24023438 8.90039062 C11.96788917 12.5138089 14.52215369 16.21136724 17 20 C16.67 20.66 16.34 21.32 16 22 C13.69 22 11.38 22 9 22 C9 21.67 9 21.34 9 21 C10.65 20.67 12.3 20.34 14 20 C12.86111328 18.55367187 12.86111328 18.55367187 11.69921875 17.078125 C10.69528885 15.80210194 9.69138391 14.52605924 8.6875 13.25 C7.93823242 12.29867187 7.93823242 12.29867187 7.17382812 11.328125 C6.20683217 10.09856722 5.24175574 8.86749686 4.27880859 7.63476562 C3.24112229 6.3082388 2.19420368 4.98893767 1.14453125 3.671875 C0 2 0 2 0 0 Z " fill="#6B686C" transform="translate(193,187)"/>
<path d="M0 0 C1.05058594 0.11085937 2.10117188 0.22171875 3.18359375 0.3359375 C4.36115234 0.47902344 4.36115234 0.47902344 5.5625 0.625 C5.5625 0.955 5.5625 1.285 5.5625 1.625 C-6.4334794 4.31270678 -17.20749333 4.81224041 -29.4375 3.625 C-29.4375 3.295 -29.4375 2.965 -29.4375 2.625 C-27.82681641 2.55152344 -27.82681641 2.55152344 -26.18359375 2.4765625 C-24.74737358 2.40146602 -23.31117681 2.32592124 -21.875 2.25 C-21.17052734 2.2190625 -20.46605469 2.188125 -19.74023438 2.15625 C-16.19188778 1.96002807 -13.25460023 1.57139145 -9.8125 0.5625 C-6.21974194 -0.43548835 -3.6832799 -0.41385167 0 0 Z " fill="#7A767E" transform="translate(95.4375,161.375)"/>
<path d="M0 0 C0.87707861 2.42444493 1.16772035 3.57996105 0.19555664 6.01464844 C-0.22862549 6.7059082 -0.65280762 7.39716797 -1.08984375 8.109375 C-1.54423828 8.86347656 -1.99863281 9.61757812 -2.46679688 10.39453125 C-2.95212891 11.17183594 -3.43746094 11.94914063 -3.9375 12.75 C-4.41896484 13.54277344 -4.90042969 14.33554688 -5.39648438 15.15234375 C-6.58674387 17.10861183 -7.78806991 19.05710972 -9 21 C-10.13818359 19.25683594 -10.13818359 19.25683594 -11 17 C-10.21728516 14.98535156 -10.21728516 14.98535156 -8.7890625 12.890625 C-8.28632812 12.13652344 -7.78359375 11.38242188 -7.265625 10.60546875 C-6.72421875 9.82816406 -6.1828125 9.05085937 -5.625 8.25 C-5.09132813 7.45722656 -4.55765625 6.66445312 -4.0078125 5.84765625 C-2.68583673 3.8882993 -1.34981289 1.94023738 0 0 Z " fill="#656367" transform="translate(63,187)"/>
<path d="M0 0 C0.33 0 0.66 0 1 0 C1 2.97 1 5.94 1 9 C1.66 8.34 2.32 7.68 3 7 C2.48594831 11.96916636 1.76615118 16.29026351 0 21 C-0.33 19.68 -0.66 18.36 -1 17 C-1.66 17 -2.32 17 -3 17 C-2.36934845 11.2190275 -1.34844868 5.6556294 0 0 Z " fill="#EDC496" transform="translate(215,141)"/>
<path d="M0 0 C10.89 0 21.78 0 33 0 C33 0.33 33 0.66 33 1 C24.585 1.495 24.585 1.495 16 2 C16 3.32 16 4.64 16 6 C15.34 6 14.68 6 14 6 C14 4.68 14 3.36 14 2 C7.07 1.505 7.07 1.505 0 1 C0 0.67 0 0.34 0 0 Z " fill="#867D89" transform="translate(113,53)"/>
<path d="M0 0 C-3.53411321 2.12046792 -6.94393835 2.53199289 -11 3 C-11 3.99 -11 4.98 -11 6 C-12.98 6.33 -14.96 6.66 -17 7 C-16.34 6.34 -15.68 5.68 -15 5 C-16.98 5.33 -18.96 5.66 -21 6 C-20 3 -20 3 -17.9375 1.875 C-11.99837561 0.10589912 -6.1435035 -0.12798966 0 0 Z " fill="#5C575D" transform="translate(167,207)"/>
<path d="M0 0 C0.66 0.33 1.32 0.66 2 1 C1.67 1.33 1.34 1.66 1 2 C1.99 2.66 2.98 3.32 4 4 C-2.03076923 8.92307692 -2.03076923 8.92307692 -6.9375 9.3125 C-7.948125 9.209375 -8.95875 9.10625 -10 9 C-7.12505529 5.01930733 -4.17882671 2.56428003 0 0 Z " fill="#F0C498" transform="translate(79,44)"/>
<path d="M0 0 C0 0.99 0 1.98 0 3 C-19.34042553 3.19148936 -19.34042553 3.19148936 -29 2 C-29 1.67 -29 1.34 -29 1 C-19.31337984 -0.04518445 -9.72654773 -0.10371911 0 0 Z " fill="#655F66" transform="translate(96,214)"/>
<path d="M0 0 C-0.33 0.99 -0.66 1.98 -1 3 C-0.34 3.33 0.32 3.66 1 4 C1 3.34 1 2.68 1 2 C1.66 2.33 2.32 2.66 3 3 C4.34061543 2.69728039 5.67405895 2.36162029 7 2 C7.99 2 8.98 2 10 2 C10 2.66 10 3.32 10 4 C8.58521865 4.64995297 7.16808513 5.29478722 5.75 5.9375 C4.56664062 6.47697266 4.56664062 6.47697266 3.359375 7.02734375 C1.24176302 7.90033279 -0.76669362 8.51338508 -3 9 C-2.01 8.01 -1.02 7.02 0 6 C-1.98 6 -3.96 6 -6 6 C-5.6875 4.125 -5.6875 4.125 -5 2 C-2 0 -2 0 0 0 Z " fill="#6F6A6B" transform="translate(144,213)"/>
<path d="M0 0 C2.31 0.33 4.62 0.66 7 1 C6.67 2.65 6.34 4.3 6 6 C1.545 6.495 1.545 6.495 -3 7 C-3 6.67 -3 6.34 -3 6 C-2.195625 5.87625 -1.39125 5.7525 -0.5625 5.625 C0.283125 5.41875 1.12875 5.2125 2 5 C2.33 4.34 2.66 3.68 3 3 C-3.93 3 -10.86 3 -18 3 C-18 2.67 -18 2.34 -18 2 C-12.06 1.67 -6.12 1.34 0 1 C0 0.67 0 0.34 0 0 Z " fill="#B8B4B4" transform="translate(100,208)"/>
<path d="M0 0 C2.89696854 0.36982577 5.37621929 0.68810965 8 2 C7.3125 3.9375 7.3125 3.9375 6 6 C3.12060581 6.93580311 1.74490212 7.37245106 -1 6 C-1.042721 4.33388095 -1.04063832 2.66617115 -1 1 C-0.67 0.67 -0.34 0.34 0 0 Z " fill="#6A646D" transform="translate(148,195)"/>
<path d="M0 0 C1.18851563 0.00902344 2.37703125 0.01804688 3.6015625 0.02734375 C4.51679688 0.03894531 5.43203125 0.05054688 6.375 0.0625 C6.045 0.7225 5.715 1.3825 5.375 2.0625 C0.18600071 3.67287909 -4.21499807 4.28791675 -9.625 4.0625 C-9.295 3.0725 -8.965 2.0825 -8.625 1.0625 C-5.74084117 -0.37957941 -3.20778472 -0.03144887 0 0 Z " fill="#31283D" transform="translate(167.625,216.9375)"/>
<path d="M0 0 C0.33 0 0.66 0 1 0 C1.33 7.59 1.66 15.18 2 23 C1.67 23 1.34 23 1 23 C0.67 26.3 0.34 29.6 0 33 C-0.33 33 -0.66 33 -1 33 C-1.14659011 21.95687814 -0.7068249 11.01889539 0 0 Z " fill="#898589" transform="translate(129,185)"/>
<path d="M0 0 C0.89589844 0.00322266 1.79179688 0.00644531 2.71484375 0.00976562 C4.12056641 0.02233398 4.12056641 0.02233398 5.5546875 0.03515625 C6.49957031 0.03966797 7.44445312 0.04417969 8.41796875 0.04882812 C10.75527137 0.06063268 13.09244811 0.07709866 15.4296875 0.09765625 C15.4296875 0.42765625 15.4296875 0.75765625 15.4296875 1.09765625 C6.0246875 1.59265625 6.0246875 1.59265625 -3.5703125 2.09765625 C-4.8903125 5.39765625 -6.2103125 8.69765625 -7.5703125 12.09765625 C-8.2303125 10.77765625 -8.8903125 9.45765625 -9.5703125 8.09765625 C-7.46867518 1.89782615 -6.47594401 -0.04098699 0 0 Z " fill="#7C767E" transform="translate(58.5703125,159.90234375)"/>
<path d="M0 0 C4.69201155 4.2107796 4.69201155 4.2107796 6 7.5625 C6 10.64219154 5.05584287 11.7796897 3 14 C1.37562889 10.44668819 0.90052139 7.87966584 1 4 C0.70955086 2.65667272 0.39044206 1.31774196 0 0 Z " fill="#E3B080" transform="translate(43,162)"/>
<path d="M0 0 C1.60495567 0.11442461 3.20898119 0.24194694 4.8125 0.375 C5.70582031 0.44460937 6.59914062 0.51421875 7.51953125 0.5859375 C10 1 10 1 13 3 C12.67 3.99 12.34 4.98 12 6 C3.42857143 4.28571429 3.42857143 4.28571429 0 0 Z " fill="#E9B380" transform="translate(157,37)"/>
<path d="M0 0 C0 4.00503984 -1.52994022 6.9301813 -4 10 C-6.75 10.9375 -6.75 10.9375 -9 11 C-7.2034488 6.75360625 -4.18376817 2.09188408 0 0 Z " fill="#6E5A4F" transform="translate(168,169)"/>
<path d="M0 0 C2.46800047 1.15173355 4.04783565 2.04783565 6 4 C7.98387708 5.03161608 9.98276656 6.03523618 12 7 C9 9 9 9 6.5625 9.125 C2.55953679 7.36760152 1.59211704 3.90468929 0 0 Z " fill="#A8A4A6" transform="translate(108,212)"/>
<path d="M0 0 C13.86 0.495 13.86 0.495 28 1 C27.67 1.66 27.34 2.32 27 3 C23.06263877 3.08696177 19.12552372 3.14037835 15.1875 3.1875 C13.50817383 3.22520508 13.50817383 3.22520508 11.79492188 3.26367188 C10.72177734 3.27333984 9.64863281 3.28300781 8.54296875 3.29296875 C7.0583313 3.31653442 7.0583313 3.31653442 5.54370117 3.34057617 C3 3 3 3 0 0 Z " fill="#746F78" transform="translate(113,163)"/>
<path d="M0 0 C1.8871875 0.0309375 1.8871875 0.0309375 3.8125 0.0625 C3.4825 0.7225 3.1525 1.3825 2.8125 2.0625 C-0.25 2.6875 -0.25 2.6875 -3.1875 3.0625 C-3.1875 3.7225 -3.1875 4.3825 -3.1875 5.0625 C-5.1675 5.0625 -7.1475 5.0625 -9.1875 5.0625 C-8.375 3.125 -8.375 3.125 -7.1875 1.0625 C-4.43671116 0.14557039 -2.82801087 -0.04636083 0 0 Z " fill="#EBB179" transform="translate(102.1875,34.9375)"/>
<path d="M0 0 C0.99 0.33 1.98 0.66 3 1 C1.38731308 3.71224618 -0.24901874 6.37352812 -2 9 C-2.99 9 -3.98 9 -5 9 C-4.5206753 4.68607774 -3.2542015 2.83430453 0 0 Z " fill="#B1814C" transform="translate(159,183)"/>
<path d="M0 0 C2.125 0.375 2.125 0.375 4 1 C3.34 2.32 2.68 3.64 2 5 C1.01 5 0.02 5 -1 5 C-3.00309329 5.31421071 -5.00371336 5.6451046 -7 6 C-6.34 4.68 -5.68 3.36 -5 2 C-4.01 2 -3.02 2 -2 2 C-1.34 1.34 -0.68 0.68 0 0 Z " fill="#A88259" transform="translate(174,164)"/>
<path d="M0 0 C0.64453125 1.83984375 0.64453125 1.83984375 1 4 C-1.3125 6.5625 -1.3125 6.5625 -4 9 C-4.99 10.485 -4.99 10.485 -6 12 C-6.99 12.33 -7.98 12.66 -9 13 C-7.50923566 9.7173068 -5.61379679 7.06922559 -3.375 4.25 C-2.74335938 3.45078125 -2.11171875 2.6515625 -1.4609375 1.828125 C-0.97882813 1.22484375 -0.49671875 0.6215625 0 0 Z " fill="#463233" transform="translate(176,168)"/>
<path d="M0 0 C4.455 0.99 4.455 0.99 9 2 C7 6 7 6 5 7 C5 6.34 5 5.68 5 5 C2.525 4.01 2.525 4.01 0 3 C0 2.01 0 1.02 0 0 Z " fill="#A9A5AA" transform="translate(151,192)"/>
<path d="M0 0 C0 1.32 0 2.64 0 4 C-2.31 4 -4.62 4 -7 4 C-7.33 2.68 -7.66 1.36 -8 0 C-4.94736336 -0.98120464 -3.05263664 -0.98120464 0 0 Z " fill="#40354D" transform="translate(198,182)"/>
<path d="M0 0 C0.68359375 1.765625 0.68359375 1.765625 1 4 C-0.21484375 5.921875 -0.21484375 5.921875 -1.9375 7.75 C-2.50339844 8.36359375 -3.06929687 8.9771875 -3.65234375 9.609375 C-4.31943359 10.29773438 -4.31943359 10.29773438 -5 11 C-7 8 -7 8 -7 6 C-6.401875 5.7525 -5.80375 5.505 -5.1875 5.25 C-2.71352479 3.83629988 -1.56629745 2.34944617 0 0 Z " fill="#6C676D" transform="translate(166,184)"/>
<path d="M0 0 C-3.94770696 2.63180464 -6.73980149 1.8008948 -11.1875 1.125 C-11.93708984 1.02058594 -12.68667969 0.91617188 -13.45898438 0.80859375 C-15.30749204 0.5495672 -17.15397432 0.27616034 -19 0 C-19 -0.33 -19 -0.66 -19 -1 C-12.39384924 -2.5013979 -6.58010343 -1.30737687 0 0 Z " fill="#88848A" transform="translate(172,164)"/>
<path d="M0 0 C2.9502636 0.65561413 5.31635923 0.10006289 8.25 -0.5 C7.59 0.16 6.93 0.82 6.25 1.5 C5.26 1.5 4.27 1.5 3.25 1.5 C3.25 2.16 3.25 2.82 3.25 3.5 C2.26 3.83 1.27 4.16 0.25 4.5 C-0.41 4.17 -1.07 3.84 -1.75 3.5 C-1.75 4.16 -1.75 4.82 -1.75 5.5 C-2.74 5.17 -3.73 4.84 -4.75 4.5 C-4.375 2.5625 -4.375 2.5625 -3.75 0.5 C-1.75 -0.5 -1.75 -0.5 0 0 Z " fill="#918E90" transform="translate(146.75,211.5)"/>
<path d="M0 0 C0.66 0 1.32 0 2 0 C2.33 1.32 2.66 2.64 3 4 C2.01 4.495 2.01 4.495 1 5 C1 4.34 1 3.68 1 3 C-0.35544922 3.03480469 -0.35544922 3.03480469 -1.73828125 3.0703125 C-2.91777344 3.08835938 -4.09726563 3.10640625 -5.3125 3.125 C-7.07013672 3.15980469 -7.07013672 3.15980469 -8.86328125 3.1953125 C-12 3 -12 3 -15 1 C-9.84828377 0.90961901 -5.08086796 1.15318867 0 2 C0 1.34 0 0.68 0 0 Z " fill="#463F46" transform="translate(209,207)"/>
<path d="M0 0 C2.97 0 5.94 0 9 0 C9 0.99 9 1.98 9 3 C4.545 3.495 4.545 3.495 0 4 C0 2.68 0 1.36 0 0 Z " fill="#332842" transform="translate(182,168)"/>
<path d="M0 0 C1.29132785 3.87398355 0.41113572 6.81988786 -0.4375 10.6875 C-0.58509766 11.38939453 -0.73269531 12.09128906 -0.88476562 12.81445312 C-1.2495932 14.54444194 -1.62388689 16.27242963 -2 18 C-2.33 18 -2.66 18 -3 18 C-3.37634203 11.19796625 -2.77471079 6.24309927 0 0 Z " fill="#E7A66A" transform="translate(41,93)"/>
<path d="M0 0 C2.1875 -0.3125 2.1875 -0.3125 5 0 C7.8125 2.5 7.8125 2.5 10 5 C9.67 5.66 9.34 6.32 9 7 C6.03 5.35 3.06 3.7 0 2 C0 1.34 0 0.68 0 0 Z " fill="#8D898D" transform="translate(117,216)"/>
<path d="M0 0 C5.53846154 0.61538462 5.53846154 0.61538462 7.875 2.5625 C8.431875 3.2740625 8.431875 3.2740625 9 4 C6.21176345 5.0326802 5.1322726 5.04509293 2.25 4.0625 C1.5075 3.711875 0.765 3.36125 0 3 C0 2.01 0 1.02 0 0 Z " fill="#2F2838" transform="translate(115,222)"/>
<path d="M0 0 C0.99 0.33 1.98 0.66 3 1 C3 1.66 3 2.32 3 3 C1.54618103 3.69699552 0.08677047 4.38233866 -1.375 5.0625 C-2.18710938 5.44535156 -2.99921875 5.82820312 -3.8359375 6.22265625 C-4.55007812 6.47917969 -5.26421875 6.73570312 -6 7 C-6.66 6.67 -7.32 6.34 -8 6 C-5.63055987 3.38114512 -3.16266898 1.58133449 0 0 Z " fill="#978F97" transform="translate(148,218)"/>
<path d="M0 0 C0.66 0.66 1.32 1.32 2 2 C-2.16138263 2.08159574 -5.9472484 1.98248524 -10 1 C-10 1.66 -10 2.32 -10 3 C-10.99 3 -11.98 3 -13 3 C-13 2.01 -13 1.02 -13 0 C-11.58456585 -0.19658808 -10.16755969 -0.38187546 -8.75 -0.5625 C-7.96109375 -0.66691406 -7.1721875 -0.77132812 -6.359375 -0.87890625 C-3.94893974 -1.00262064 -2.2664992 -0.80877215 0 0 Z " fill="#979096" transform="translate(63,212)"/>
<path d="M0 0 C0.99 0 1.98 0 3 0 C1.23867546 4.00301032 -1.26132483 7.6028977 -4 11 C-4.33 11 -4.66 11 -5 11 C-5.3125 8.8125 -5.3125 8.8125 -5 6 C-2.5 3.25 -2.5 3.25 0 1 C0 0.67 0 0.34 0 0 Z " fill="#706C79" transform="translate(173,174)"/>
<path d="M0 0 C2.64752004 2.57784846 4.94432065 4.91648098 7 8 C6.67 8.66 6.34 9.32 6 10 C3.69 10 1.38 10 -1 10 C-1 9.67 -1 9.34 -1 9 C0.65 8.67 2.3 8.34 4 8 C3.01 6.8553125 3.01 6.8553125 2 5.6875 C0 3 0 3 0 0 Z " fill="#636064" transform="translate(203,199)"/>
<path d="M0 0 C0.66 0.99 1.32 1.98 2 3 C1.030625 3.28875 0.06125 3.5775 -0.9375 3.875 C-4.10664203 4.64214682 -4.10664203 4.64214682 -5 7 C-6.32 5.02 -7.64 3.04 -9 1 C-6.03 1.33 -3.06 1.66 0 2 C0 1.34 0 0.68 0 0 Z " fill="#635B6F" transform="translate(195,178)"/>
<path d="M0 0 C-0.33 1.32 -0.66 2.64 -1 4 C-3.31 4.33 -5.62 4.66 -8 5 C-5.96115496 0.48541456 -5.19128917 0 0 0 Z " fill="#E9B274" transform="translate(87,42)"/>
<path d="M0 0 C0.33 0 0.66 0 1 0 C1 4.62 1 9.24 1 14 C-0.32 14 -1.64 14 -3 14 C-2.125 10.125 -2.125 10.125 -1 9 C-0.76807135 7.48530552 -0.58784762 5.96245438 -0.4375 4.4375 C-0.35371094 3.61121094 -0.26992188 2.78492188 -0.18359375 1.93359375 C-0.12300781 1.29550781 -0.06242187 0.65742187 0 0 Z " fill="#DABEA1" transform="translate(53,58)"/>
<path d="M0 0 C0.66 1.32 1.32 2.64 2 4 C0.625 7.25 0.625 7.25 -1 10 C-1.99 9.67 -2.98 9.34 -4 9 C-2.68 6.03 -1.36 3.06 0 0 Z " fill="#828084" transform="translate(35,198)"/>
<path d="M0 0 C0.66 0 1.32 0 2 0 C2.70180531 1.4096347 3.38593958 2.82807641 4.0625 4.25 C4.44535156 5.03890625 4.82820312 5.8278125 5.22265625 6.640625 C6.08564091 9.25993522 5.93045933 10.44855176 5 13 C4.15930585 11.39967863 3.32768495 9.79458829 2.5 8.1875 C1.80390625 6.84751953 1.80390625 6.84751953 1.09375 5.48046875 C0 3 0 3 0 0 Z " fill="#626062" transform="translate(210,179)"/>
<path d="M0 0 C0.99 0 1.98 0 3 0 C3 2.31 3 4.62 3 7 C1.68 7 0.36 7 -1 7 C-0.67 4.69 -0.34 2.38 0 0 Z " fill="#E8B27C" transform="translate(211,158)"/>
<path d="M0 0 C1.65 0.33 3.3 0.66 5 1 C4.67 1.99 4.34 2.98 4 4 C4.33 4.66 4.66 5.32 5 6 C2.36 5.34 -0.28 4.68 -3 4 C-2.01 3.67 -1.02 3.34 0 3 C0 2.01 0 1.02 0 0 Z " fill="#514857" transform="translate(111,220)"/>
<path d="M0 0 C1.875 0.25 1.875 0.25 4 1 C5.25 3.0625 5.25 3.0625 6 5 C6.66 5 7.32 5 8 5 C8 6.32 8 7.64 8 9 C7.34 9 6.68 9 6 9 C4.60699818 7.04109119 3.27754554 5.0360882 2 3 C1.34 2.01 0.68 1.02 0 0 Z " fill="#666167" transform="translate(122,216)"/>
<path d="M0 0 C3.375 0.25 3.375 0.25 7 1 C8.4375 3.0625 8.4375 3.0625 9 5 C5.625 4.75 5.625 4.75 2 4 C0.5625 1.9375 0.5625 1.9375 0 0 Z " fill="#625E60" transform="translate(112,210)"/>
<path d="M0 0 C0.66 0.33 1.32 0.66 2 1 C0.90931332 4.77545388 0.0916909 7.47043472 -3 10 C-3.75 8.375 -3.75 8.375 -4 6 C-2.0625 2.75 -2.0625 2.75 0 0 Z " fill="#716F73" transform="translate(56,198)"/>
<path d="M0 0 C2.31 0 4.62 0 7 0 C5.35 1.65 3.7 3.3 2 5 C1.01 4.67 0.02 4.34 -1 4 C-0.67 2.68 -0.34 1.36 0 0 Z " fill="#524A57" transform="translate(131,165)"/>
<path d="M0 0 C1.09570312 0.10183594 2.19140625 0.20367187 3.3203125 0.30859375 C4.16335937 0.39238281 5.00640625 0.47617188 5.875 0.5625 C5.875 0.8925 5.875 1.2225 5.875 1.5625 C3.91810341 1.78392255 1.95938048 1.9892568 0 2.1875 C-1.63582031 2.36152344 -1.63582031 2.36152344 -3.3046875 2.5390625 C-4.70074219 2.55066406 -4.70074219 2.55066406 -6.125 2.5625 C-6.785 1.9025 -7.445 1.2425 -8.125 0.5625 C-5.28943413 -0.85528293 -3.1341294 -0.30007622 0 0 Z " fill="#99959B" transform="translate(95.125,161.4375)"/>
<path d="M0 0 C2 1.75 2 1.75 4 4 C4 5.32 4 6.64 4 8 C3.34 8 2.68 8 2 8 C1.67 8.66 1.34 9.32 1 10 C0.67 6.7 0.34 3.4 0 0 Z " fill="#E8B079" transform="translate(214,94)"/>
<path d="M0 0 C4.455 0.99 4.455 0.99 9 2 C8.34 3.32 7.68 4.64 7 6 C7 5.01 7 4.02 7 3 C4.36 3 1.72 3 -1 3 C-0.67 2.01 -0.34 1.02 0 0 Z " fill="#655F70" transform="translate(60,178)"/>
<path d="M0 0 C0 0.66 0 1.32 0 2 C1.65 2.33 3.3 2.66 5 3 C5 3.33 5 3.66 5 4 C1.37 4 -2.26 4 -6 4 C-5.67 3.01 -5.34 2.02 -5 1 C-2 0 -2 0 0 0 Z " fill="#554B5B" transform="translate(159,218)"/>
<path d="M0 0 C2.64465038 3.1254959 3.84414715 6.08788267 5 10 C4.01 10.495 4.01 10.495 3 11 C0.29417212 7.16674383 -0.32613618 4.67461851 0 0 Z " fill="#797779" transform="translate(216,190)"/>
<path d="M0 0 C2.97 0 5.94 0 9 0 C9 0.99 9 1.98 9 3 C2.25 3.125 2.25 3.125 0 2 C0 1.34 0 0.68 0 0 Z " fill="#352C45" transform="translate(186,177)"/>
<path d="M0 0 C2.97 0 5.94 0 9 0 C8.34 1.65 7.68 3.3 7 5 C6.67 4.01 6.34 3.02 6 2 C4.02 2 2.04 2 0 2 C0 1.34 0 0.68 0 0 Z " fill="#5D5568" transform="translate(63,175)"/>
<path d="M0 0 C0.33 0 0.66 0 1 0 C1 3.96 1 7.92 1 12 C1.99 12.33 2.98 12.66 4 13 C4 13.66 4 14.32 4 15 C2.68 14.67 1.36 14.34 0 14 C0 9.38 0 4.76 0 0 Z " fill="#8B868E" transform="translate(131,211)"/>
<path d="M0 0 C3.0625 0.3125 3.0625 0.3125 4.9375 1.8125 C5.30875 2.3075 5.68 2.8025 6.0625 3.3125 C3.42999612 4.62875194 2.26070944 4.06063658 -0.5625 3.375 C-1.78839844 3.08302734 -1.78839844 3.08302734 -3.0390625 2.78515625 C-3.97878906 2.55119141 -3.97878906 2.55119141 -4.9375 2.3125 C-2.9375 0.3125 -2.9375 0.3125 0 0 Z " fill="#797379" transform="translate(106.9375,215.6875)"/>
<path d="M0 0 C0.33 0 0.66 0 1 0 C1 3.63 1 7.26 1 11 C0.34 11 -0.32 11 -1 11 C-1.33 11.99 -1.66 12.98 -2 14 C-2 11.69 -2 9.38 -2 7 C-1.67 7 -1.34 7 -1 7 C-0.67 4.69 -0.34 2.38 0 0 Z " fill="#858183" transform="translate(128,173)"/>
<path d="M0 0 C3.3 0 6.6 0 10 0 C10 0.66 10 1.32 10 2 C2.25 3.125 2.25 3.125 0 2 C0 1.34 0 0.68 0 0 Z " fill="#352A42" transform="translate(183,173)"/>
<path d="M0 0 C0.66 1.32 1.32 2.64 2 4 C-0.97 4 -3.94 4 -7 4 C-7.33 3.34 -7.66 2.68 -8 2 C-5.36 2 -2.72 2 0 2 C0 1.34 0 0.68 0 0 Z " fill="#4F455E" transform="translate(191,169)"/>
<path d="M0 0 C1.32 0 2.64 0 4 0 C4 0.66 4 1.32 4 2 C5.98 2 7.96 2 10 2 C10 2.33 10 2.66 10 3 C6.7 3.33 3.4 3.66 0 4 C-0.33 3.34 -0.66 2.68 -1 2 C-0.67 1.34 -0.34 0.68 0 0 Z " fill="#9A989D" transform="translate(141,161)"/>
<path d="M0 0 C0.99 0.33 1.98 0.66 3 1 C3.33 3.97 3.66 6.94 4 10 C0.48283697 6.48283697 0.45323837 4.80432667 0 0 Z " fill="#E7A66D" transform="translate(39,151)"/>
<path d="M0 0 C1.32 0 2.64 0 4 0 C2.9024777 2.99324263 2.32317108 3.84610901 -0.625 5.25 C-1.40875 5.4975 -2.1925 5.745 -3 6 C-2.67 5.01 -2.34 4.02 -2 3 C-1.34 3.33 -0.68 3.66 0 4 C0 2.68 0 1.36 0 0 Z " fill="#58515E" transform="translate(146,222)"/>
<path d="M0 0 C0.99 0 1.98 0 3 0 C3 0.66 3 1.32 3 2 C3.66 2.33 4.32 2.66 5 3 C4.21625 3.309375 3.4325 3.61875 2.625 3.9375 C0.07669872 4.92875038 0.07669872 4.92875038 -2 6 C-1.34 4.02 -0.68 2.04 0 0 Z " fill="#573F37" transform="translate(158,180)"/>
<path d="M0 0 C0.33 0.99 0.66 1.98 1 3 C-0.98 3.99 -2.96 4.98 -5 6 C-4.75 4.125 -4.75 4.125 -4 2 C-1.9375 0.75 -1.9375 0.75 0 0 Z " fill="#BF8B4A" transform="translate(173,168)"/>
<path d="M0 0 C3.96 0 7.92 0 12 0 C9.36966546 2.63033454 7.67293796 2.77962372 4 3 C2.68 2.01 1.36 1.02 0 0 Z " fill="#97919F" transform="translate(168,161)"/>
<path d="M0 0 C0.33 0 0.66 0 1 0 C1 2.31 1 4.62 1 7 C0.01 7 -0.98 7 -2 7 C-2 5.35 -2 3.7 -2 2 C-1.34 2 -0.68 2 0 2 C0 1.34 0 0.68 0 0 Z " fill="#EBB07D" transform="translate(44,85)"/>
<path d="M0 0 C2.97 0.495 2.97 0.495 6 1 C6.33 2.32 6.66 3.64 7 5 C4.625 4.75 4.625 4.75 2 4 C0.6875 1.9375 0.6875 1.9375 0 0 Z " fill="#E6AB6C" transform="translate(171,43)"/>
<path d="M0 0 C1.98 0.495 1.98 0.495 4 1 C4 1.99 4 2.98 4 4 C2.35 4 0.7 4 -1 4 C-0.67 2.68 -0.34 1.36 0 0 Z " fill="#33273B" transform="translate(149,196)"/>
<path d="M0 0 C2.3431213 0.25561323 4.67843403 0.59270772 7 1 C7.33 1.66 7.66 2.32 8 3 C5.69 3 3.38 3 1 3 C0.67 2.01 0.34 1.02 0 0 Z " fill="#ECBE8E" transform="translate(181,50)"/>
</svg>
